<?xml version="1.0" encoding="UTF-8" standalone="no"?><!DOCTYPE svg PUBLIC "-//W3C//DTD SVG 1.1//EN" "http://www.w3.org/Graphics/SVG/1.1/DTD/svg11.dtd"><svg width="100%" height="100%" viewBox="0 0 1000 1000" version="1.1" xmlns="http://www.w3.org/2000/svg" xmlns:xlink="http://www.w3.org/1999/xlink" xml:space="preserve" xmlns:serif="http://www.serif.com/" style="fill-rule:evenodd;clip-rule:evenodd;"><rect x="-1" y="-1" width="1000" height="1000" style="fill:#fff;"/><g id="layer1"><g id="flowRoot3336"><path id="path4379" d="M169.698,473.991c15.199,0 26.993,4.004 35.382,12.012c8.39,8.009 13.047,17.106 13.974,27.294l-15.853,0c-1.798,-7.736 -5.394,-13.864 -10.787,-18.386c-5.339,-4.522 -12.857,-6.783 -22.554,-6.783c-11.822,0 -21.382,4.168 -28.683,12.503c-7.245,8.28 -10.868,21.001 -10.868,38.161c0,14.055 3.269,25.468 9.806,34.239c6.592,8.716 16.398,13.074 29.417,13.074c11.985,0 21.111,-4.603 27.376,-13.81c3.323,-4.849 5.802,-11.222 7.436,-19.121l15.853,0c-1.417,12.638 -6.102,23.234 -14.055,31.788c-9.534,10.296 -22.39,15.444 -38.57,15.444c-13.946,0 -25.659,-4.222 -35.137,-12.666c-12.475,-11.168 -18.712,-28.41 -18.712,-51.725c0,-17.705 4.685,-32.224 14.055,-43.555c10.133,-12.312 24.106,-18.468 41.92,-18.468l0,-0.001Z" style="fill-rule:nonzero;"/><path id="path4381" d="M250.679,558.561c0.381,6.81 1.988,12.339 4.821,16.588c5.393,7.954 14.9,11.931 28.519,11.931c6.102,0 11.658,-0.872 16.67,-2.615c9.697,-3.377 14.546,-9.424 14.546,-18.141c0,-6.537 -2.043,-11.195 -6.129,-13.973c-4.14,-2.724 -10.623,-5.094 -19.448,-7.11l-16.262,-3.677c-10.623,-2.397 -18.141,-5.039 -22.554,-7.926c-7.627,-5.012 -11.44,-12.503 -11.44,-22.472c0,-10.787 3.732,-19.639 11.195,-26.558c7.463,-6.918 18.032,-10.378 31.706,-10.378c12.584,0 23.262,3.051 32.034,9.153c8.825,6.047 13.238,15.744 13.238,29.091l-15.281,0c-0.817,-6.428 -2.56,-11.358 -5.23,-14.79c-4.957,-6.265 -13.374,-9.398 -25.25,-9.398c-9.588,0 -16.479,2.016 -20.674,6.048c-4.195,4.031 -6.292,8.716 -6.292,14.055c0,5.883 2.451,10.187 7.354,12.911c3.215,1.743 10.487,3.922 21.818,6.537l16.833,3.841c8.118,1.852 14.382,4.385 18.794,7.599c7.627,5.612 11.441,13.756 11.441,24.434c0,13.293 -4.849,22.8 -14.546,28.519c-9.642,5.721 -20.864,8.581 -33.666,8.581c-14.927,0 -26.613,-3.814 -35.057,-11.44c-8.444,-7.573 -12.585,-17.842 -12.421,-30.807l15.281,0l0,-0.003Z" style="fill-rule:nonzero;"/><path id="path4383" d="M362.137,558.561c0.382,6.81 1.989,12.339 4.822,16.588c5.393,7.954 14.899,11.931 28.519,11.931c6.101,0 11.658,-0.872 16.67,-2.615c9.697,-3.377 14.545,-9.424 14.545,-18.141c0,-6.537 -2.043,-11.195 -6.128,-13.973c-4.141,-2.724 -10.624,-5.094 -19.449,-7.11l-16.261,-3.677c-10.624,-2.397 -18.141,-5.039 -22.554,-7.926c-7.627,-5.012 -11.441,-12.503 -11.441,-22.472c0,-10.787 3.732,-19.639 11.196,-26.558c7.463,-6.918 18.032,-10.378 31.706,-10.378c12.584,0 23.262,3.051 32.034,9.153c8.825,6.047 13.237,15.744 13.237,29.091l-15.281,0c-0.817,-6.428 -2.56,-11.358 -5.229,-14.79c-4.958,-6.265 -13.375,-9.398 -25.251,-9.398c-9.588,0 -16.479,2.016 -20.673,6.048c-4.195,4.031 -6.293,8.716 -6.293,14.055c0,5.883 2.452,10.187 7.355,12.911c3.214,1.743 10.487,3.922 21.817,6.537l16.834,3.841c8.117,1.852 14.382,4.385 18.794,7.599c7.627,5.612 11.44,13.756 11.44,24.434c0,13.293 -4.848,22.8 -14.545,28.519c-9.643,5.721 -20.865,8.581 -33.667,8.581c-14.927,0 -26.612,-3.814 -35.057,-11.44c-8.444,-7.573 -12.584,-17.842 -12.421,-30.807l15.281,0l0,-0.003Z" style="fill-rule:nonzero;"/><path id="path4385" d="M118.697,686.439l23.288,0l34.485,101.491l34.239,-101.491l23.045,0l0,120.042l-15.445,0l0,-70.849c0,-2.452 0.055,-6.51 0.164,-12.176c0.109,-5.665 0.163,-11.74 0.163,-18.222l-34.239,101.246l-16.098,0l-34.484,-101.246l0,3.677c0,2.941 0.054,7.436 0.163,13.483c0.163,5.992 0.245,10.405 0.245,13.238l0,70.849l-15.526,0l0,-120.042l0,0Z" style="fill-rule:nonzero;"/><path id="path4387" d="M310.48,683.185c21.192,0 36.882,6.809 47.068,20.428c7.954,10.623 11.931,24.216 11.931,40.777c0,17.923 -4.549,32.823 -13.647,44.699c-10.678,13.946 -25.904,20.919 -45.679,20.919c-18.467,0 -32.985,-6.101 -43.555,-18.304c-9.424,-11.768 -14.137,-26.64 -14.137,-44.617c0,-16.235 4.032,-30.127 12.094,-41.675c10.351,-14.818 25.659,-22.227 45.924,-22.227l0.001,0Zm1.635,112.278c14.328,0 24.678,-5.121 31.051,-15.362c6.429,-10.297 9.643,-22.118 9.643,-35.465c0,-14.11 -3.704,-25.468 -11.113,-34.075c-7.355,-8.608 -17.433,-12.911 -30.236,-12.911c-12.421,0 -22.554,4.276 -30.399,12.829c-7.845,8.499 -11.767,21.056 -11.767,37.672c0,13.293 3.35,24.515 10.051,33.666c6.755,9.098 17.678,13.647 32.768,13.647l0.002,-0.001Z" style="fill-rule:nonzero;"/><path id="path4389" d="M434.862,792.598c5.503,0 10.024,-0.572 13.565,-1.716c6.32,-2.125 11.495,-6.211 15.526,-12.258c3.214,-4.848 5.53,-11.059 6.946,-18.632c0.817,-4.522 1.226,-8.716 1.226,-12.584c0,-14.873 -2.969,-26.422 -8.907,-34.648c-5.888,-8.219 -15.397,-12.329 -28.525,-12.329l-28.846,0l0,92.176l29.01,0l0.005,-0.009Zm-45.353,-106.15l48.62,0c16.507,0 29.309,5.856 38.407,17.569c8.117,10.569 12.175,24.106 12.175,40.613c0,12.748 -2.397,24.27 -7.191,34.567c-8.444,18.195 -22.962,27.293 -43.555,27.293l-48.459,0l0,-120.042l0.003,0Z" style="fill-rule:nonzero;"/><path id="path4391" d="M527.354,686.439l0,74.198c0,8.716 1.634,15.961 4.903,21.735c4.848,8.717 13.02,13.075 24.515,13.075c13.783,0 23.153,-4.712 28.11,-14.137c2.67,-5.121 4.004,-12.012 4.004,-20.674l0,-74.198l16.507,0l0,67.416c0,14.764 -1.988,26.122 -5.965,34.076c-7.3,14.49 -21.083,21.735 -41.348,21.735c-20.266,0 -34.021,-7.245 -41.266,-21.735c-3.977,-7.954 -5.965,-19.312 -5.965,-34.076l0,-67.416l16.507,0l-0.002,0.001Z" style="fill-rule:nonzero;"/><path id="path4393" d="M630.333,686.439l16.261,0l0,105.74l60.797,0l0,14.301l-77.058,0l0,-120.042l0,0.001Z" style="fill-rule:nonzero;"/><path id="path4395" d="M725.037,686.439l87.518,0l0,14.709l-71.666,0l0,36.446l66.273,0l0,13.892l-66.273,0l0,40.695l72.891,0l0,14.3l-88.745,0l0,-120.042l0.002,0Z" style="fill-rule:nonzero;"/><path id="path4397" d="M845.886,767.755c0.381,6.81 1.989,12.339 4.821,16.588c5.394,7.954 14.9,11.931 28.52,11.931c6.101,0 11.658,-0.872 16.67,-2.615c9.697,-3.378 14.545,-9.425 14.545,-18.141c0,-6.537 -2.043,-11.195 -6.129,-13.974c-4.14,-2.724 -10.623,-5.093 -19.448,-7.109l-16.262,-3.677c-10.623,-2.397 -18.141,-5.039 -22.553,-7.926c-7.627,-5.012 -11.441,-12.503 -11.441,-22.473c0,-10.786 3.732,-19.639 11.196,-26.557c7.463,-6.919 18.032,-10.378 31.706,-10.378c12.584,0 23.262,3.051 32.033,9.152c8.826,6.047 13.238,15.745 13.238,29.092l-15.281,0c-0.817,-6.428 -2.56,-11.358 -5.229,-14.79c-4.958,-6.265 -13.375,-9.398 -25.251,-9.398c-9.588,0 -16.479,2.016 -20.674,6.047c-4.194,4.032 -6.292,8.717 -6.292,14.055c0,5.884 2.452,10.188 7.355,12.912c3.214,1.743 10.487,3.922 21.817,6.537l16.834,3.841c8.117,1.852 14.382,4.385 18.794,7.599c7.627,5.611 11.44,13.756 11.44,24.434c0,13.293 -4.849,22.799 -14.546,28.519c-9.642,5.72 -20.864,8.58 -33.666,8.58c-14.927,0 -26.612,-3.813 -35.057,-11.44c-8.444,-7.572 -12.584,-17.841 -12.421,-30.806l15.281,0l0,-0.003Z" style="fill-rule:nonzero;"/></g><rect id="rect4156" x="76.205" y="152.49" width="695.02" height="695.02" style="fill:none;stroke:#000;stroke-width:5px;"/></g></svg>