<svg width="48" height="48" viewBox="0 0 48 48" fill="none" xmlns="http://www.w3.org/2000/svg">
<style>
  path {
    fill: hsl(220deg 55% 8% / 100%);
  }

  @media (prefers-color-scheme: dark) {
    path {
      fill: hsl(240deg 20% 99% / 100%);
    }
  }
</style>
<path fill-rule="evenodd" clip-rule="evenodd" d="M13.0927 22.3459C12.5238 22.2002 12.0186 22.0229 11.8348 21.9534C9.7699 21.1734 7.32344 19.7972 7.32344 17.1413V7.51709C7.32344 4.86124 9.7699 3.48504 11.8348 2.70498C14.611 1.65619 19.9321 1.22433 23.9807 1.22433C28.0294 1.22433 33.3504 1.65619 36.1266 2.70498C38.1915 3.48504 40.6383 4.86124 40.6383 7.51709V17.1413C40.6383 19.7972 38.1915 21.1734 36.1266 21.9534C35.9465 22.0214 35.3505 22.231 34.8755 22.3442C35.1038 22.4132 35.3197 22.4778 35.477 22.5301C40.4723 24.1327 43.7285 26.6634 43.7285 29.1713C43.7285 31.6583 40.4748 34.1922 35.4832 35.8013C36.593 40.9286 36.0298 45.0145 33.8575 46.2684C31.7026 47.5126 27.8784 45.9591 23.9868 42.4365C20.0952 45.9591 16.2708 47.5126 14.1158 46.2684C11.9439 45.0145 11.3806 40.9286 12.4904 35.8013C7.49877 34.1922 4.2448 31.6583 4.2448 29.1713C4.2448 26.6634 7.50161 24.1327 12.497 22.5301C12.6599 22.4778 12.7882 22.4383 13.0927 22.3459ZM32.2387 31.4237C34.7675 37.9163 34.9008 43.529 32.9321 44.6655C31.4836 45.5019 28.5005 44.1371 25.2874 41.1874C27.3727 39.0678 29.4259 36.4078 31.1998 33.3357C31.5675 32.699 31.9136 32.0609 32.2387 31.4237ZM15.7353 31.4237C16.0603 32.0609 16.4064 32.699 16.774 33.3357C18.5477 36.4078 20.6009 39.0678 22.6862 41.1874C19.4731 44.1371 16.4899 45.5019 15.0412 44.6655C13.0727 43.529 13.2064 37.9163 15.7353 31.4237ZM27.9453 23.3075C28.5151 24.1409 29.0684 25.0172 29.5968 25.9324C30.2213 27.0142 30.7815 28.0988 31.2781 29.1712C30.7815 30.2438 30.2213 31.3285 29.5968 32.4103C27.8928 35.3617 25.93 37.9082 23.9868 39.9181C22.0437 37.9082 20.0808 35.3617 18.3769 32.4103C17.7523 31.3285 17.1922 30.2438 16.6954 29.1712C17.1922 28.0988 17.7523 27.0142 18.3769 25.9324C18.9051 25.0174 19.4582 24.1414 20.0278 23.3082C21.3916 23.3938 22.7454 23.4341 23.9807 23.4341C25.2196 23.4341 26.5776 23.3937 27.9453 23.3075ZM30.0637 23.1515C36.9509 24.2078 41.8777 26.8983 41.8777 29.1713C41.8777 30.8432 39.207 32.7432 35.0501 34.051C34.2536 31.1866 32.9735 28.0797 31.1998 25.007C30.8321 24.3705 30.4527 23.7516 30.0637 23.1515ZM17.9099 23.1515C17.5208 23.7516 17.1414 24.3705 16.774 25.007C15 28.0797 13.7199 31.1866 12.9238 34.051C8.76645 32.7432 6.09561 30.8432 6.09561 29.1713C6.09561 26.8983 11.023 24.2078 17.9099 23.1515ZM38.7875 8.31911C38.7875 6.10591 36.6128 4.95909 34.7774 4.30902C32.3096 3.435 27.5795 3.07515 23.9807 3.07515C20.3819 3.07515 15.6521 3.435 13.1843 4.30902C11.3488 4.95909 9.17425 6.10591 9.17425 8.31911V16.3393C9.17425 18.5525 11.3488 19.6993 13.1843 20.3494C15.6521 21.2234 20.3819 21.5833 23.9807 21.5833C27.5795 21.5833 32.3096 21.2234 34.7774 20.3494C36.6128 19.6993 38.7875 18.5525 38.7875 16.3393V8.31911ZM18.4403 10.7252C19.4619 10.7252 20.2911 11.8309 20.2911 13.1929C20.2911 14.5549 19.4619 15.6607 18.4403 15.6607C17.4189 15.6607 16.5895 14.5549 16.5895 13.1929C16.5895 11.8309 17.4189 10.7252 18.4403 10.7252ZM29.5452 10.7252C30.5668 10.7252 31.396 11.8309 31.396 13.1929C31.396 14.5549 30.5668 15.6607 29.5452 15.6607C28.5237 15.6607 27.6944 14.5549 27.6944 13.1929C27.6944 11.8309 28.5237 10.7252 29.5452 10.7252Z"/>
<path fill-rule="evenodd" clip-rule="evenodd" d="M12.161 22.3545C9.23361 23.3234 6.91954 24.6129 5.51872 26.0206C4.51466 27.0295 3.97372 28.1055 3.97372 29.1714C3.97372 30.2286 4.5141 31.3003 5.51761 32.3074C6.92053 33.7153 9.24027 35.01 12.1747 35.9833C11.546 39.0114 11.5042 41.6683 12.0241 43.5898C12.3958 44.9638 13.0572 45.9703 13.9803 46.5033C14.8964 47.0322 16.0954 47.0998 17.4703 46.7336C19.3925 46.2217 21.6753 44.8581 23.9868 42.8009C26.2983 44.8581 28.5811 46.2217 30.5033 46.7336C31.8784 47.0998 33.0771 47.0322 33.9933 46.5033C34.9162 45.9703 35.5776 44.9638 35.9496 43.5898C36.4697 41.6683 36.4277 39.0114 35.7991 35.9833C38.7332 35.01 41.0529 33.7153 42.4558 32.3074C43.4596 31.3003 44 30.2286 44 29.1714C44 28.1055 43.4589 27.0295 42.4546 26.0206C41.0529 24.612 38.7369 23.3216 35.8071 22.3528C35.9934 22.2907 36.1452 22.2363 36.2223 22.2071C38.3828 21.3909 40.9091 19.92 40.9091 17.1413V7.51713C40.9091 4.73844 38.3828 3.26754 36.2223 2.45139C33.4245 1.39427 28.0615 0.95322 23.9808 0.95322C19.8999 0.95322 14.5372 1.39427 11.7389 2.45139C9.5786 3.26754 7.0523 4.73844 7.0523 7.51713V17.1413C7.0523 19.92 9.5786 21.3909 11.7389 22.2071C11.8225 22.2386 11.9708 22.292 12.161 22.3545ZM13.0927 22.3459C12.5239 22.2002 12.0186 22.0229 11.8348 21.9535C9.76991 21.1734 7.32345 19.7972 7.32345 17.1413V7.51713C7.32345 4.86127 9.76991 3.48507 11.8348 2.70501C14.611 1.65622 19.9321 1.22436 23.9808 1.22436C28.0294 1.22436 33.3504 1.65622 36.1266 2.70501C38.1915 3.48507 40.6383 4.86127 40.6383 7.51713V17.1413C40.6383 19.7972 38.1915 21.1734 36.1266 21.9535C35.9465 22.0214 35.3505 22.2311 34.8755 22.3442C35.1038 22.4133 35.3197 22.4779 35.477 22.5302C40.4724 24.1327 43.7286 26.6635 43.7286 29.1714C43.7286 31.6583 40.4748 34.1922 35.4832 35.8013C36.5931 40.9287 36.0298 45.0145 33.8576 46.2685C31.7026 47.5126 27.8784 45.9591 23.9868 42.4366C20.0952 45.9591 16.2708 47.5126 14.1158 46.2685C11.9439 45.0145 11.3806 40.9287 12.4904 35.8013C7.49878 34.1922 4.24481 31.6583 4.24481 29.1714C4.24481 26.6635 7.50162 24.1327 12.497 22.5302C12.66 22.4779 12.7882 22.4384 13.0927 22.3459ZM15.7353 31.4238C16.0603 32.061 16.4064 32.6991 16.774 33.3357C18.5477 36.4079 20.6009 39.0678 22.6862 41.1875C19.4731 44.1371 16.4899 45.502 15.0412 44.6656C13.0727 43.5291 13.2064 37.9163 15.7353 31.4238ZM32.2387 31.4238C34.7675 37.9163 34.9008 43.5291 32.9321 44.6656C31.4836 45.502 28.5005 44.1371 25.2874 41.1875C27.3727 39.0678 29.4259 36.4079 31.1998 33.3357C31.5675 32.6991 31.9136 32.061 32.2387 31.4238ZM32.1998 32.0858C33.5479 35.7175 34.1315 39.031 33.9964 41.3677C33.9501 42.1622 33.8212 42.8406 33.6071 43.3744C33.4103 43.8657 33.1444 44.2301 32.797 44.4308C32.2708 44.7344 31.5224 44.6948 30.6273 44.395C29.226 43.9261 27.4956 42.8111 25.6776 41.1758C27.7096 39.0752 29.7042 36.4682 31.4342 33.4713C31.7007 33.01 31.9562 32.5478 32.1998 32.0859V32.0858ZM15.7735 32.0858C16.0176 32.5478 16.2729 33.01 16.5392 33.4713C18.2695 36.4682 20.2641 39.0752 22.296 41.1758C20.4781 42.8111 18.7476 43.9261 17.3466 44.395C16.451 44.6948 15.7026 44.7344 15.1768 44.4308C14.8292 44.2301 14.5633 43.8657 14.3663 43.3744C14.1523 42.8406 14.0234 42.1622 13.9774 41.3677C13.8421 39.031 14.4258 35.7175 15.7735 32.0858ZM27.9453 23.3075C28.5151 24.1409 29.0684 25.0172 29.5968 25.9325C30.2213 27.0142 30.7815 28.0988 31.2781 29.1713C30.7815 30.2438 30.2213 31.3285 29.5968 32.4103C27.8928 35.3617 25.93 37.9082 23.9868 39.9182C22.0437 37.9082 20.0808 35.3617 18.3769 32.4103C17.7523 31.3285 17.1922 30.2438 16.6954 29.1713C17.1922 28.0988 17.7523 27.0142 18.3769 25.9325C18.9051 25.0175 19.4582 24.1414 20.0279 23.3083C21.3917 23.3939 22.7454 23.4341 23.9808 23.4341C25.2196 23.4341 26.5776 23.3937 27.9453 23.3075ZM27.808 23.5876C28.3436 24.3773 28.8639 25.2053 29.362 26.068C29.9603 27.1042 30.4989 28.1431 30.9789 29.1713C30.4989 30.1995 29.9603 31.2384 29.362 32.2748C27.727 35.1066 25.8522 37.5633 23.9868 39.5264C22.1214 37.5633 20.2466 35.1066 18.6116 32.2748C18.0134 31.2384 17.4746 30.1995 16.9944 29.1713C17.4747 28.1431 18.0134 27.1042 18.6116 26.068C19.1096 25.2055 19.6297 24.3778 20.1651 23.5883C21.4825 23.6678 22.7867 23.7053 23.9808 23.7053C25.1783 23.7053 26.4867 23.6676 27.808 23.5876ZM17.9099 23.1516C17.5208 23.7517 17.1415 24.3706 16.774 25.0071C15 28.0798 13.7199 31.1867 12.9238 34.0511C8.76646 32.7433 6.09562 30.8433 6.09562 29.1714C6.09562 26.8983 11.023 24.2079 17.9099 23.1516ZM30.0638 23.1516C36.9509 24.2079 41.8777 26.8983 41.8777 29.1714C41.8777 30.8433 39.207 32.7433 35.0501 34.0511C34.2536 31.1867 32.9735 28.0798 31.1998 25.0071C30.8321 24.3706 30.4527 23.7517 30.0638 23.1516ZM30.6174 23.5157C34.4369 24.1643 37.598 25.3157 39.5537 26.6012C40.2188 27.0383 40.742 27.4891 41.0973 27.9413C41.4243 28.3576 41.6069 28.7701 41.6069 29.1714C41.6069 29.7782 41.1991 30.4062 40.4921 31.0316C39.3865 32.0099 37.5579 32.9507 35.2346 33.7073C34.4282 30.8986 33.1647 27.8688 31.4342 24.8715C31.1683 24.4102 30.8956 23.9581 30.6174 23.5157ZM17.3559 23.5157C17.078 23.9581 16.8055 24.4102 16.5392 24.8715C14.8087 27.8688 13.5453 30.8986 12.7392 33.7073C10.416 32.9507 8.587 32.0099 7.48151 31.0316C6.77475 30.4062 6.36676 29.7782 6.36676 29.1714C6.36676 28.7701 6.54938 28.3576 6.87635 27.9413C7.23165 27.4891 7.75475 27.0383 8.41975 26.6012C10.3756 25.3157 13.537 24.1644 17.3559 23.5157ZM38.7875 8.31914C38.7875 6.10594 36.6128 4.95912 34.7774 4.30905C32.3097 3.43504 27.5795 3.07518 23.9808 3.07518C20.3819 3.07518 15.6521 3.43504 13.1844 4.30905C11.3488 4.95912 9.17426 6.10594 9.17426 8.31914V16.3393C9.17426 18.5525 11.3488 19.6994 13.1844 20.3494C15.6521 21.2234 20.3819 21.5833 23.9808 21.5833C27.5795 21.5833 32.3097 21.2234 34.7774 20.3494C36.6128 19.6994 38.7875 18.5525 38.7875 16.3393V8.31914ZM38.5161 8.31914V16.3393C38.5161 17.3585 38.0089 18.1287 37.297 18.7223C36.548 19.3467 35.5757 19.7791 34.6867 20.0939C32.2399 20.9605 27.5492 21.3122 23.9808 21.3122C20.4123 21.3122 15.7218 20.9605 13.2749 20.0939C12.3859 19.7791 11.4134 19.3467 10.6646 18.7223C9.95265 18.1287 9.44534 17.3585 9.44534 16.3393V8.31914C9.44534 7.30003 9.95265 6.52978 10.6646 5.93616C11.4134 5.31176 12.3859 4.87941 13.2749 4.56459C15.7218 3.69797 20.4123 3.34632 23.9808 3.34632C27.5492 3.34632 32.2399 3.69797 34.6867 4.56459C35.5757 4.87941 36.548 5.31176 37.297 5.93616C38.0089 6.52978 38.5161 7.30003 38.5161 8.31914ZM29.5452 10.4541C28.3979 10.4541 27.4233 11.6632 27.4233 13.193C27.4233 14.7227 28.3979 15.9318 29.5452 15.9318C30.6927 15.9318 31.6674 14.7227 31.6674 13.193C31.6674 11.6632 30.6927 10.4541 29.5452 10.4541ZM18.4404 10.4541C17.293 10.4541 16.3185 11.6632 16.3185 13.193C16.3185 14.7227 17.293 15.9318 18.4404 15.9318C19.5877 15.9318 20.5623 14.7227 20.5623 13.193C20.5623 11.6632 19.5877 10.4541 18.4404 10.4541ZM18.4404 10.7252C19.4619 10.7252 20.2912 11.8309 20.2912 13.193C20.2912 14.555 19.4619 15.6607 18.4404 15.6607C17.4189 15.6607 16.5895 14.555 16.5895 13.193C16.5895 11.8309 17.4189 10.7252 18.4404 10.7252ZM29.5452 10.7252C30.5668 10.7252 31.396 11.8309 31.396 13.193C31.396 14.555 30.5668 15.6607 29.5452 15.6607C28.5238 15.6607 27.6944 14.555 27.6944 13.193C27.6944 11.8309 28.5238 10.7252 29.5452 10.7252Z"/>
</svg>
