<svg width="48" height="48" viewBox="0 0 48 48" fill="none" xmlns="http://www.w3.org/2000/svg">
<path fill-rule="evenodd" clip-rule="evenodd" d="M14.5355 22.5594C14.042 22.433 13.6036 22.2792 13.4442 22.2189C11.6528 21.5422 9.53033 20.3483 9.53033 18.0442V9.69456C9.53033 7.39044 11.6528 6.19651 13.4442 5.51976C15.8527 4.60987 20.4691 4.23521 23.9815 4.23521C27.494 4.23521 32.1103 4.60987 34.5188 5.51976C36.3103 6.19651 38.433 7.39044 38.433 9.69456V18.0442C38.433 20.3483 36.3103 21.5422 34.5188 22.2189C34.3626 22.2779 33.8455 22.4598 33.4334 22.558C33.6314 22.6179 33.8188 22.6739 33.9553 22.7193C38.289 24.1096 41.114 26.3052 41.114 28.4809C41.114 30.6385 38.2912 32.8368 33.9606 34.2328C34.9235 38.6811 34.4348 42.2258 32.5503 43.3137C30.6807 44.3931 27.363 43.0453 23.9868 39.9893C20.6106 43.0453 17.2927 44.3931 15.4231 43.3137C13.5389 42.2258 13.0502 38.6811 14.013 34.2328C9.68244 32.8368 6.85942 30.6385 6.85942 28.4809C6.85942 26.3052 9.6849 24.1096 14.0187 22.7193C14.1601 22.6739 14.2713 22.6396 14.5355 22.5594ZM31.1458 30.435C33.3397 36.0677 33.4553 40.9371 31.7474 41.9231C30.4907 42.6487 27.9027 41.4646 25.1152 38.9056C26.9242 37.0667 28.7055 34.759 30.2445 32.0937C30.5635 31.5414 30.8638 30.9878 31.1458 30.435ZM16.8281 30.435C17.11 30.9878 17.4104 31.5414 17.7293 32.0937C19.268 34.759 21.0493 37.0667 22.8585 38.9056C20.0709 41.4646 17.4828 42.6487 16.226 41.9231C14.5181 40.9371 14.6341 36.0677 16.8281 30.435ZM27.421 23.3937C27.9154 24.1167 28.3954 24.877 28.8538 25.671C29.3956 26.6094 29.8816 27.5504 30.3125 28.4808C29.8816 29.4113 29.3956 30.3524 28.8538 31.2909C27.3755 33.8514 25.6726 36.0606 23.9868 37.8044C22.301 36.0606 20.5981 33.8514 19.1198 31.2909C18.578 30.3524 18.092 29.4113 17.6611 28.4808C18.0921 27.5504 18.578 26.6094 19.1198 25.671C19.5781 24.8772 20.0579 24.1171 20.5522 23.3943C21.7353 23.4686 22.9098 23.5035 23.9815 23.5035C25.0563 23.5035 26.2344 23.4684 27.421 23.3937ZM29.2589 23.2584C35.2339 24.1748 39.5083 26.5089 39.5083 28.4809C39.5083 29.9314 37.1913 31.5798 33.5849 32.7143C32.8939 30.2293 31.7833 27.5339 30.2445 24.8681C29.9255 24.3159 29.5963 23.779 29.2589 23.2584ZM18.7147 23.2584C18.3772 23.779 18.048 24.3159 17.7293 24.8681C16.1902 27.5339 15.0796 30.2293 14.389 32.7143C10.7822 31.5798 8.46511 29.9314 8.46511 28.4809C8.46511 26.5089 12.7399 24.1748 18.7147 23.2584ZM36.8273 10.3904C36.8273 8.47027 34.9406 7.47533 33.3483 6.91136C31.2074 6.1531 27.1037 5.8409 23.9815 5.8409C20.8593 5.8409 16.7559 6.1531 14.615 6.91136C13.0226 7.47533 11.136 8.47027 11.136 10.3904V17.3484C11.136 19.2684 13.0226 20.2634 14.615 20.8273C16.7559 21.5856 20.8593 21.8978 23.9815 21.8978C27.1037 21.8978 31.2074 21.5856 33.3483 20.8273C34.9406 20.2634 36.8273 19.2684 36.8273 17.3484V10.3904ZM19.1749 12.4778C20.0611 12.4778 20.7806 13.437 20.7806 14.6187C20.7806 15.8003 20.0611 16.7596 19.1749 16.7596C18.2887 16.7596 17.5692 15.8003 17.5692 14.6187C17.5692 13.437 18.2887 12.4778 19.1749 12.4778ZM28.8091 12.4778C29.6953 12.4778 30.4147 13.437 30.4147 14.6187C30.4147 15.8003 29.6953 16.7596 28.8091 16.7596C27.9229 16.7596 27.2034 15.8003 27.2034 14.6187C27.2034 13.437 27.9229 12.4778 28.8091 12.4778Z" fill="white"/>
<path fill-rule="evenodd" clip-rule="evenodd" d="M13.7272 22.5669C11.1875 23.4075 9.17993 24.5262 7.96463 25.7474C7.09354 26.6228 6.62425 27.5562 6.62425 28.481C6.62425 29.3982 7.09306 30.3279 7.96367 31.2017C9.18078 32.4231 11.1933 33.5463 13.7391 34.3907C13.1936 37.0178 13.1574 39.3228 13.6084 40.9898C13.931 42.1819 14.5047 43.055 15.3055 43.5174C16.1003 43.9763 17.1406 44.0349 18.3334 43.7173C20.0009 43.2731 21.9814 42.0902 23.9868 40.3054C25.9922 42.0902 27.9727 43.2731 29.6402 43.7173C30.8333 44.0349 31.8732 43.9763 32.668 43.5174C33.4687 43.055 34.0425 42.1819 34.3652 40.9898C34.8164 39.3228 34.7801 37.0178 34.2347 34.3907C36.7802 33.5463 38.7927 32.4231 40.0098 31.2017C40.8806 30.3279 41.3495 29.3982 41.3495 28.481C41.3495 27.5562 40.8801 26.6228 40.0087 25.7474C38.7927 24.5254 36.7834 23.406 34.2416 22.5654C34.4033 22.5116 34.5349 22.4643 34.6018 22.439C36.4762 21.731 38.668 20.4549 38.668 18.0442V9.69459C38.668 7.28391 36.4762 6.00781 34.6018 5.29975C32.1746 4.38264 27.5219 4 23.9816 4C20.4412 4 15.7887 4.38264 13.361 5.29975C11.4868 6.00781 9.29511 7.28391 9.29511 9.69459V18.0442C9.29511 20.4549 11.4868 21.731 13.361 22.439C13.4335 22.4664 13.5622 22.5127 13.7272 22.5669ZM14.5355 22.5594C14.042 22.4331 13.6037 22.2792 13.4442 22.219C11.6528 21.5422 9.53034 20.3483 9.53034 18.0442V9.69459C9.53034 7.39047 11.6528 6.19653 13.4442 5.51979C15.8528 4.6099 20.4691 4.23523 23.9816 4.23523C27.494 4.23523 32.1103 4.6099 34.5189 5.51979C36.3103 6.19653 38.433 7.39047 38.433 9.69459V18.0442C38.433 20.3483 36.3103 21.5422 34.5189 22.219C34.3626 22.278 33.8455 22.4598 33.4334 22.558C33.6315 22.6179 33.8188 22.6739 33.9553 22.7193C38.289 24.1096 41.114 26.3052 41.114 28.481C41.114 30.6385 38.2912 32.8368 33.9606 34.2328C34.9235 38.6811 34.4348 42.2259 32.5503 43.3137C30.6807 44.3931 27.363 43.0453 23.9868 39.9893C20.6106 43.0453 17.2927 44.3931 15.4231 43.3137C13.5389 42.2259 13.0502 38.6811 14.013 34.2328C9.68245 32.8368 6.85943 30.6385 6.85943 28.481C6.85943 26.3052 9.68492 24.1096 14.0187 22.7193C14.1601 22.6739 14.2714 22.6397 14.5355 22.5594ZM16.8281 30.435C17.1101 30.9879 17.4104 31.5415 17.7293 32.0938C19.2681 34.7591 21.0494 37.0667 22.8585 38.9057C20.0709 41.4646 17.4828 42.6487 16.226 41.9231C14.5182 40.9371 14.6341 36.0678 16.8281 30.435ZM31.1458 30.435C33.3398 36.0678 33.4554 40.9371 31.7474 41.9231C30.4907 42.6487 27.9027 41.4646 25.1152 38.9057C26.9243 37.0667 28.7056 34.7591 30.2445 32.0938C30.5635 31.5415 30.8638 30.9879 31.1458 30.435ZM31.1121 31.0094C32.2816 34.1601 32.7879 37.0348 32.6707 39.062C32.6306 39.7513 32.5187 40.3398 32.333 40.8029C32.1622 41.2292 31.9316 41.5454 31.6302 41.7194C31.1737 41.9828 30.5244 41.9485 29.7478 41.6884C28.5321 41.2815 27.0309 40.3143 25.4537 38.8955C27.2166 37.0731 28.947 34.8114 30.4479 32.2114C30.6791 31.8112 30.9007 31.4102 31.1121 31.0095V31.0094ZM16.8613 31.0094C17.0731 31.4102 17.2945 31.8112 17.5256 32.2114C19.0267 34.8114 20.7571 37.0731 22.52 38.8955C20.9428 40.3143 19.4415 41.2815 18.2261 41.6884C17.449 41.9485 16.7998 41.9828 16.3436 41.7194C16.0421 41.5454 15.8114 41.2292 15.6405 40.8029C15.4548 40.3398 15.343 39.7513 15.3031 39.062C15.1857 37.0348 15.692 34.1601 16.8613 31.0094ZM27.4211 23.3937C27.9154 24.1167 28.3954 24.877 28.8538 25.671C29.3956 26.6095 29.8816 27.5505 30.3125 28.4809C29.8816 29.4114 29.3956 30.3524 28.8538 31.2909C27.3755 33.8515 25.6726 36.0607 23.9868 37.8045C22.301 36.0607 20.5982 33.8515 19.1199 31.2909C18.578 30.3524 18.092 29.4114 17.6611 28.4809C18.0921 27.5505 18.578 26.6095 19.1199 25.671C19.5781 24.8772 20.058 24.1172 20.5522 23.3943C21.7354 23.4686 22.9098 23.5035 23.9816 23.5035C25.0563 23.5035 26.2345 23.4685 27.4211 23.3937ZM27.302 23.6367C27.7666 24.3219 28.218 25.0401 28.6501 25.7886C29.1692 26.6876 29.6365 27.5889 30.0529 28.4809C29.6365 29.3729 29.1692 30.2743 28.6501 31.1733C27.2316 33.6302 25.6052 35.7614 23.9868 37.4645C22.3685 35.7614 20.742 33.6302 19.3235 31.1733C18.8045 30.2743 18.3371 29.3729 17.9205 28.4809C18.3371 27.5889 18.8045 26.6876 19.3235 25.7886C19.7555 25.0403 20.2068 24.3223 20.6713 23.6373C21.8141 23.7063 22.9456 23.7388 23.9816 23.7388C25.0205 23.7388 26.1556 23.7061 27.302 23.6367ZM18.7147 23.2584C18.3772 23.779 18.0481 24.316 17.7293 24.8682C16.1902 27.5339 15.0797 30.2294 14.389 32.7144C10.7822 31.5798 8.46513 29.9314 8.46513 28.481C8.46513 26.509 12.7399 24.1748 18.7147 23.2584ZM29.2589 23.2584C35.2339 24.1748 39.5083 26.509 39.5083 28.481C39.5083 29.9314 37.1913 31.5798 33.5849 32.7144C32.8939 30.2294 31.7833 27.5339 30.2445 24.8682C29.9255 24.316 29.5963 23.779 29.2589 23.2584ZM29.7393 23.5743C33.0529 24.137 35.7954 25.1359 37.4921 26.2512C38.069 26.6304 38.5229 27.0214 38.8312 27.4138C39.1149 27.775 39.2733 28.1328 39.2733 28.481C39.2733 29.0074 38.9195 29.5522 38.3062 30.0948C37.347 30.9436 35.7606 31.7597 33.7449 32.4161C33.0454 29.9795 31.9492 27.3509 30.4479 24.7506C30.2172 24.3504 29.9806 23.9582 29.7393 23.5743ZM18.2341 23.5743C17.993 23.9582 17.7566 24.3504 17.5256 24.7506C16.0242 27.3509 14.9281 29.9795 14.2288 32.4161C12.2133 31.7597 10.6265 30.9436 9.66747 30.0948C9.05431 29.5522 8.70036 29.0074 8.70036 28.481C8.70036 28.1328 8.85879 27.775 9.14246 27.4138C9.4507 27.0214 9.90452 26.6304 10.4814 26.2512C12.1783 25.1359 14.921 24.1371 18.2341 23.5743ZM36.8273 10.3904C36.8273 8.4703 34.9406 7.47536 33.3483 6.91139C31.2074 6.15313 27.1037 5.84093 23.9816 5.84093C20.8594 5.84093 16.756 6.15313 14.615 6.91139C13.0226 7.47536 11.136 8.4703 11.136 10.3904V17.3484C11.136 19.2685 13.0226 20.2634 14.615 20.8274C16.756 21.5856 20.8594 21.8978 23.9816 21.8978C27.1037 21.8978 31.2074 21.5856 33.3483 20.8274C34.9406 20.2634 36.8273 19.2685 36.8273 17.3484V10.3904ZM36.5918 10.3904V17.3484C36.5918 18.2325 36.1519 18.9008 35.5342 19.4158C34.8844 19.9575 34.0409 20.3326 33.2696 20.6057C31.1469 21.3575 27.0774 21.6626 23.9816 21.6626C20.8857 21.6626 16.8164 21.3575 14.6935 20.6057C13.9223 20.3326 13.0787 19.9575 12.429 19.4158C11.8113 18.9008 11.3712 18.2325 11.3712 17.3484V10.3904C11.3712 9.50624 11.8113 8.838 12.429 8.323C13.0787 7.7813 13.9223 7.40621 14.6935 7.13308C16.8164 6.38124 20.8857 6.07616 23.9816 6.07616C27.0774 6.07616 31.1469 6.38124 33.2696 7.13308C34.0409 7.40621 34.8844 7.7813 35.5342 8.323C36.1519 8.838 36.5918 9.50624 36.5918 10.3904ZM28.8091 12.2426C27.8137 12.2426 26.9682 13.2915 26.9682 14.6187C26.9682 15.9459 27.8137 16.9949 28.8091 16.9949C29.8046 16.9949 30.6502 15.9459 30.6502 14.6187C30.6502 13.2915 29.8046 12.2426 28.8091 12.2426ZM19.1749 12.2426C18.1796 12.2426 17.3341 13.2915 17.3341 14.6187C17.3341 15.9459 18.1796 16.9949 19.1749 16.9949C20.1703 16.9949 21.0159 15.9459 21.0159 14.6187C21.0159 13.2915 20.1703 12.2426 19.1749 12.2426ZM19.1749 12.4778C20.0612 12.4778 20.7806 13.4371 20.7806 14.6187C20.7806 15.8003 20.0612 16.7596 19.1749 16.7596C18.2887 16.7596 17.5692 15.8003 17.5692 14.6187C17.5692 13.4371 18.2887 12.4778 19.1749 12.4778ZM28.8091 12.4778C29.6954 12.4778 30.4147 13.4371 30.4147 14.6187C30.4147 15.8003 29.6954 16.7596 28.8091 16.7596C27.9229 16.7596 27.2034 15.8003 27.2034 14.6187C27.2034 13.4371 27.9229 12.4778 28.8091 12.4778Z" fill="white"/>
</svg>
