<svg width="180" height="180" viewBox="0 0 180 180" fill="none" xmlns="http://www.w3.org/2000/svg">
<g clip-path="url(#clip0_1010_70)">
<rect x="80" y="60" width="10" height="10" fill="#101323"/>
<rect x="110" y="60" width="10" height="10" fill="#101323"/>
<rect x="40" y="10" width="30" height="10" fill="#F8F9FC"/>
<rect x="70" y="20" width="10" height="10" fill="#F8F9FC"/>
<rect x="40" y="100" width="10" height="10" fill="#F8F9FC"/>
<rect x="130" y="100" width="10" height="10" fill="#F8F9FC"/>
<rect x="50" y="100" width="80" height="10" fill="#3E4784"/>
<rect x="40" y="40" width="20" height="60" fill="#717BBC"/>
<rect x="60" y="50" width="10" height="40" fill="#B3B8DB"/>
<rect x="60" y="40" width="80" height="10" fill="#B3B8DB"/>
<rect x="70" y="50" width="60" height="10" fill="#D5D9EB"/>
<rect x="120" y="60" width="10" height="30" fill="#D5D9EB"/>
<rect x="70" y="60" width="10" height="30" fill="#F8F9FC"/>
<rect x="80" y="70" width="10" height="20" fill="#F8F9FC"/>
<rect x="110" y="70" width="10" height="20" fill="#F8F9FC"/>
<rect x="90" y="80" width="20" height="10" fill="#F8F9FC"/>
<rect x="90" y="60" width="20" height="10" fill="#F8F9FC"/>
<rect x="90" y="70" width="20" height="10" fill="#F8F9FC"/>
<rect x="60" y="90" width="80" height="10" fill="#B3B8DB"/>
<rect x="70" y="130" width="50" height="10" fill="#B3B8DB"/>
<rect x="70" y="110" width="10" height="20" fill="#B3B8DB"/>
<rect x="110" y="140" width="10" height="20" fill="#B3B8DB"/>
<rect x="130" y="50" width="10" height="40" fill="#B3B8DB"/>
<rect x="80" y="110" width="10" height="10" fill="#717BBC"/>
<rect x="90" y="120" width="10" height="10" fill="#717BBC"/>
<rect x="100" y="110" width="10" height="10" fill="#717BBC"/>
<rect x="110" y="120" width="10" height="10" fill="#717BBC"/>
<rect x="60" y="160" width="50" height="10" transform="rotate(-90 60 160)" fill="#3E4784"/>
<rect x="100" y="120" width="10" height="10" fill="#293056"/>
<rect x="110" y="110" width="10" height="10" fill="#293056"/>
<rect x="80" y="120" width="10" height="10" fill="#293056"/>
<rect x="90" y="110" width="10" height="10" fill="#293056"/>
<rect x="120" y="110" width="10" height="50" fill="#F8F9FC"/>
<rect x="50" y="110" width="10" height="50" fill="#F8F9FC"/>
<rect x="80" y="140" width="20" height="10" fill="#F8F9FC"/>
<rect x="60" y="160" width="10" height="10" fill="#F8F9FC"/>
<rect x="50" y="160" width="10" height="10" fill="#F8F9FC"/>
<rect x="70" y="140" width="10" height="20" fill="#F8F9FC"/>
<rect x="100" y="140" width="10" height="20" fill="#F8F9FC"/>
<rect x="110" y="160" width="10" height="10" fill="#F8F9FC"/>
<rect x="100" y="160" width="10" height="10" fill="#F8F9FC"/>
<rect x="30" y="40" width="10" height="60" fill="#F8F9FC"/>
<rect x="140" y="40" width="10" height="60" fill="#F8F9FC"/>
<rect x="40" y="30" width="100" height="10" fill="#F8F9FC"/>
</g>
<defs>
<clipPath id="clip0_1010_70">
<rect width="180" height="180" fill="white"/>
</clipPath>
</defs>
</svg>
