<svg width="226" height="226" viewBox="0 0 226 226" fill="none" xmlns="http://www.w3.org/2000/svg">
<circle cx="113" cy="113" r="107" fill="#F8F9FC" stroke="#4E5BA6" stroke-width="12"/>
<rect x="103" y="83" width="10" height="10" fill="#0D0F1C"/>
<rect x="133" y="83" width="10" height="10" fill="#0D0F1C"/>
<rect x="63" y="33" width="30" height="10" fill="#0D0F1C"/>
<rect x="93" y="43" width="10" height="10" fill="#0D0F1C"/>
<rect x="63" y="123" width="10" height="10" fill="#0D0F1C"/>
<rect x="153" y="123" width="10" height="10" fill="#0D0F1C"/>
<rect x="73" y="123" width="80" height="10" fill="#4E5BA6"/>
<rect x="63" y="63" width="20" height="60" fill="#717BBC"/>
<rect x="83" y="73" width="10" height="40" fill="#B3B8DB"/>
<rect x="83" y="63" width="80" height="10" fill="#B3B8DB"/>
<rect x="93" y="73" width="60" height="10" fill="#D5D9EB"/>
<rect x="143" y="83" width="10" height="30" fill="#D5D9EB"/>
<rect x="93" y="83" width="10" height="30" fill="#F8F9FC"/>
<rect x="103" y="93" width="10" height="20" fill="#F8F9FC"/>
<rect x="133" y="93" width="10" height="20" fill="#F8F9FC"/>
<rect x="113" y="103" width="20" height="10" fill="#F8F9FC"/>
<rect x="113" y="83" width="20" height="10" fill="#F8F9FC"/>
<rect x="113" y="93" width="20" height="10" fill="#F8F9FC"/>
<rect x="83" y="113" width="80" height="10" fill="#B3B8DB"/>
<rect x="93" y="153" width="50" height="10" fill="#B3B8DB"/>
<rect x="93" y="133" width="10" height="20" fill="#B3B8DB"/>
<rect x="133" y="163" width="10" height="20" fill="#B3B8DB"/>
<rect x="153" y="73" width="10" height="40" fill="#B3B8DB"/>
<rect x="103" y="133" width="10" height="10" fill="#717BBC"/>
<rect x="113" y="143" width="10" height="10" fill="#717BBC"/>
<rect x="123" y="133" width="10" height="10" fill="#717BBC"/>
<rect x="133" y="143" width="10" height="10" fill="#717BBC"/>
<rect x="83" y="183" width="50" height="10" transform="rotate(-90 83 183)" fill="#4E5BA6"/>
<rect x="123" y="143" width="10" height="10" fill="#293056"/>
<rect x="133" y="133" width="10" height="10" fill="#293056"/>
<rect x="103" y="143" width="10" height="10" fill="#293056"/>
<rect x="113" y="133" width="10" height="10" fill="#293056"/>
<rect x="143" y="133" width="10" height="50" fill="#0D0F1C"/>
<rect x="73" y="133" width="10" height="50" fill="#0D0F1C"/>
<rect x="103" y="163" width="20" height="10" fill="#0D0F1C"/>
<rect x="83" y="183" width="10" height="10" fill="#0D0F1C"/>
<rect x="73" y="183" width="10" height="10" fill="#0D0F1C"/>
<rect x="93" y="163" width="10" height="20" fill="#0D0F1C"/>
<rect x="123" y="163" width="10" height="20" fill="#0D0F1C"/>
<rect x="133" y="183" width="10" height="10" fill="#0D0F1C"/>
<rect x="123" y="183" width="10" height="10" fill="#0D0F1C"/>
<rect x="53" y="63" width="10" height="60" fill="#0D0F1C"/>
<rect x="163" y="63" width="10" height="60" fill="#0D0F1C"/>
<rect x="63" y="53" width="100" height="10" fill="#0D0F1C"/>
</svg>
