<?xml version="1.0" encoding="UTF-8" standalone="no"?><!DOCTYPE svg PUBLIC "-//W3C//DTD SVG 1.1//EN" "http://www.w3.org/Graphics/SVG/1.1/DTD/svg11.dtd"><svg width="100%" height="100%" viewBox="0 0 640 570" version="1.1" xmlns="http://www.w3.org/2000/svg" xmlns:xlink="http://www.w3.org/1999/xlink" xml:space="preserve" xmlns:serif="http://www.serif.com/" style="fill-rule:evenodd;clip-rule:evenodd;stroke-linejoin:round;stroke-miterlimit:2;"><path d="M640,285.039c0,-42.397 -53.094,-82.577 -134.497,-107.493c18.786,-82.968 10.437,-148.977 -26.351,-170.11c-8.479,-4.957 -18.394,-7.306 -29.221,-7.306l0,29.091c6.001,0 10.827,1.174 14.871,3.392c17.742,10.175 25.439,48.92 19.438,98.753c-1.435,12.262 -3.783,25.177 -6.653,38.353c-25.569,-6.262 -53.486,-11.089 -82.838,-14.22c-17.611,-24.133 -35.874,-46.049 -54.268,-65.226c42.528,-39.527 82.446,-61.182 109.58,-61.182l0,-29.091c-35.874,0 -82.837,25.569 -130.322,69.923c-47.485,-44.093 -94.448,-69.401 -130.322,-69.401l0,29.091c27.004,0 67.053,21.524 109.58,60.791c-18.263,19.176 -36.527,40.962 -53.877,65.095c-29.482,3.131 -57.399,7.958 -82.968,14.35c-3,-13.045 -5.218,-25.699 -6.783,-37.831c-6.131,-49.833 1.435,-88.577 19.046,-98.883c3.914,-2.348 9.001,-3.392 15.002,-3.392l0,-29.091c-10.958,0 -20.872,2.348 -29.482,7.306c-36.657,21.133 -44.876,87.011 -25.96,169.718c-81.142,25.047 -133.975,65.096 -133.975,107.363c0,42.397 53.094,82.576 134.497,107.493c-18.786,82.967 -10.437,148.976 26.351,170.11c8.479,4.957 18.394,7.305 29.352,7.305c35.874,0 82.837,-25.569 130.322,-69.923c47.485,44.093 94.447,69.401 130.322,69.401c10.958,0 20.872,-2.348 29.482,-7.305c36.657,-21.133 44.876,-87.012 25.96,-169.719c80.881,-24.916 133.714,-65.096 133.714,-107.362Zm-169.849,-87.012c-4.827,16.828 -10.828,34.178 -17.611,51.529c-5.349,-10.437 -10.958,-20.873 -17.09,-31.309c-6,-10.436 -12.393,-20.611 -18.785,-30.526c18.525,2.74 36.397,6.131 53.486,10.306Zm-59.747,138.932c-10.176,17.611 -20.612,34.309 -31.439,49.833c-19.438,1.696 -39.136,2.609 -58.965,2.609c-19.698,0 -39.397,-0.913 -58.704,-2.479c-10.827,-15.524 -21.394,-32.091 -31.569,-49.572c-9.915,-17.089 -18.916,-34.439 -27.134,-51.92c8.088,-17.481 17.219,-34.961 27.003,-52.05c10.176,-17.612 20.612,-34.309 31.439,-49.833c19.438,-1.696 39.136,-2.609 58.965,-2.609c19.698,0 39.397,0.913 58.704,2.478c10.827,15.524 21.394,32.092 31.569,49.572c9.915,17.089 18.916,34.44 27.134,51.92c-8.218,17.481 -17.219,34.962 -27.003,52.051Zm42.136,-16.959c7.044,17.481 13.045,34.961 18.002,51.92c-17.089,4.175 -35.092,7.697 -53.746,10.436c6.392,-10.045 12.784,-20.35 18.785,-30.917c6.001,-10.436 11.61,-21.003 16.959,-31.439Zm-132.279,139.193c-12.132,-12.524 -24.264,-26.482 -36.266,-41.745c11.741,0.522 23.742,0.913 35.875,0.913c12.262,0 24.394,-0.261 36.265,-0.913c-11.74,15.263 -23.872,29.221 -35.874,41.745Zm-97.057,-76.837c-18.524,-2.739 -36.396,-6.131 -53.485,-10.305c4.826,-16.829 10.827,-34.179 17.611,-51.529c5.348,10.436 10.958,20.872 17.089,31.308c6.131,10.437 12.393,20.612 18.785,30.526Zm96.405,-271.471c12.132,12.523 24.264,26.481 36.265,41.744c-11.74,-0.521 -23.742,-0.913 -35.874,-0.913c-12.263,0 -24.395,0.261 -36.266,0.913c11.741,-15.263 23.873,-29.221 35.875,-41.744Zm-96.535,76.836c-6.392,10.045 -12.785,20.351 -18.785,30.917c-6.001,10.437 -11.611,20.873 -16.959,31.309c-7.045,-17.481 -13.045,-34.961 -18.003,-51.92c17.09,-4.044 35.092,-7.566 53.747,-10.306Zm-118.06,163.327c-46.18,-19.699 -76.054,-45.528 -76.054,-66.009c0,-20.481 29.874,-46.441 76.054,-66.009c11.219,-4.827 23.482,-9.132 36.136,-13.176c7.435,25.569 17.219,52.181 29.351,79.446c-12.001,27.134 -21.655,53.616 -28.96,79.054c-12.915,-4.044 -25.177,-8.48 -36.527,-13.306Zm70.184,186.416c-17.742,-10.175 -25.439,-48.919 -19.438,-98.752c1.435,-12.263 3.783,-25.178 6.653,-38.353c25.569,6.261 53.486,11.088 82.838,14.219c17.611,24.134 35.874,46.05 54.268,65.226c-42.528,39.527 -82.446,61.183 -109.58,61.183c-5.871,-0.131 -10.828,-1.305 -14.741,-3.523Zm309.433,-99.404c6.131,49.832 -1.435,88.577 -19.046,98.883c-3.914,2.348 -9.001,3.391 -15.002,3.391c-27.004,0 -67.053,-21.524 -109.58,-60.791c18.263,-19.176 36.527,-40.962 53.877,-65.095c29.482,-3.131 57.399,-7.958 82.968,-14.35c3,13.176 5.348,25.829 6.783,37.962Zm50.224,-87.012c-11.219,4.826 -23.481,9.131 -36.135,13.175c-7.436,-25.568 -17.22,-52.181 -29.352,-79.445c12.002,-27.134 21.655,-53.616 28.961,-79.054c12.914,4.044 25.177,8.479 36.657,13.306c46.18,19.698 76.054,45.528 76.054,66.009c-0.131,20.481 -30.005,46.441 -76.185,66.009Z" style="fill:#61dafb;fill-rule:nonzero;"/><circle cx="319.87" cy="285.039" r="59.617" style="fill:#61dafb;"/></svg>