<?xml version="1.0" encoding="UTF-8" standalone="no"?>
<!DOCTYPE svg PUBLIC "-//W3C//DTD SVG 1.1//EN" "http://www.w3.org/Graphics/SVG/1.1/DTD/svg11.dtd">
<svg width="100%" height="100%" viewBox="0 0 60 68" version="1.1" xmlns="http://www.w3.org/2000/svg" xmlns:xlink="http://www.w3.org/1999/xlink" xml:space="preserve" xmlns:serif="http://www.serif.com/" style="fill-rule:evenodd;clip-rule:evenodd;stroke-linejoin:round;stroke-miterlimit:2;">
    <g transform="matrix(1,0,0,1,-930.475,-566)">
        <g transform="matrix(0.0922652,0,0,0.0922652,878.169,555.075)">
            <g id="outlines" transform="matrix(1,0,0,1,-12.8882,4.41315)">
                <path d="M723.22,456.361C714,454 705.81,451.126 702.831,450C669.361,437.356 629.706,415.049 629.706,372L629.706,216C629.706,172.951 669.361,150.644 702.831,138C747.831,121 834.081,114 899.706,114C965.331,114 1051.58,121 1096.58,138C1130.05,150.644 1169.71,172.951 1169.71,216L1169.71,372C1169.71,415.049 1130.05,437.356 1096.58,450C1093.66,451.102 1084,454.5 1076.3,456.334C1080,457.453 1083.5,458.5 1086.05,459.348C1167.02,485.324 1219.8,526.345 1219.8,566.996C1219.8,607.307 1167.06,648.379 1086.15,674.461C1104.14,757.571 1095.01,823.799 1059.8,844.124C1024.87,864.291 962.883,839.11 899.804,782.013C836.725,839.11 774.734,864.291 739.804,844.124C704.6,823.799 695.469,757.571 713.458,674.461C632.548,648.379 579.804,607.307 579.804,566.996C579.804,526.345 632.594,485.324 713.564,459.348C716.206,458.5 718.285,457.86 723.22,456.361ZM1033.56,603.505C1074.55,708.744 1076.71,799.721 1044.8,818.143C1021.32,831.7 972.967,809.577 920.886,761.766C954.686,727.408 987.967,684.293 1016.72,634.496C1022.68,624.177 1028.29,613.834 1033.56,603.505ZM766.054,603.505C771.322,613.834 776.933,624.177 782.891,634.496C811.641,684.293 844.922,727.408 878.723,761.766C826.641,809.577 778.286,831.7 754.804,818.143C722.896,799.721 725.063,708.744 766.054,603.505ZM963.968,471.948C973.204,485.457 982.172,499.661 990.737,514.496C1000.86,532.03 1009.94,549.611 1017.99,566.994C1009.94,584.379 1000.86,601.961 990.737,619.496C963.117,667.336 931.301,708.612 899.804,741.192C868.308,708.612 836.492,667.336 808.872,619.496C798.748,601.961 789.669,584.379 781.617,566.994C789.67,549.611 798.748,532.03 808.872,514.496C817.434,499.665 826.399,485.465 835.633,471.96C857.739,473.348 879.682,474 899.706,474C919.786,474 941.798,473.345 963.968,471.948ZM998.306,469.42C1109.94,486.542 1189.8,530.152 1189.8,566.996C1189.8,594.096 1146.51,624.893 1079.13,646.091C1066.22,599.662 1045.47,549.302 1016.72,499.496C1010.76,489.179 1004.61,479.147 998.306,469.42ZM801.303,469.42C794.996,479.147 788.847,489.179 782.891,499.496C754.136,549.302 733.387,599.662 720.483,646.091C653.096,624.893 609.804,594.096 609.804,566.996C609.804,530.152 689.672,486.542 801.303,469.42ZM1139.71,229C1139.71,193.126 1104.46,174.537 1074.71,164C1034.71,149.833 958.039,144 899.706,144C841.372,144 764.706,149.833 724.706,164C694.954,174.537 659.706,193.126 659.706,229L659.706,359C659.706,394.874 694.954,413.463 724.706,424C764.706,438.167 841.372,444 899.706,444C958.039,444 1034.71,438.167 1074.71,424C1104.46,413.463 1139.71,394.874 1139.71,359L1139.71,229ZM809.901,268C826.459,268 839.901,285.923 839.901,308C839.901,330.077 826.459,348 809.901,348C793.344,348 779.901,330.077 779.901,308C779.901,285.923 793.344,268 809.901,268ZM989.901,268C1006.46,268 1019.9,285.923 1019.9,308C1019.9,330.077 1006.46,348 989.901,348C973.344,348 959.901,330.077 959.901,308C959.901,285.923 973.344,268 989.901,268Z" style="fill:rgb(236,239,244);"/>
            </g>
        </g>
    </g>
</svg>
