<?xml version="1.0" encoding="UTF-8" standalone="no"?>
<!DOCTYPE svg PUBLIC "-//W3C//DTD SVG 1.1//EN" "http://www.w3.org/Graphics/SVG/1.1/DTD/svg11.dtd">
<svg width="100%" height="100%" viewBox="0 0 22 25" version="1.1" xmlns="http://www.w3.org/2000/svg" xmlns:xlink="http://www.w3.org/1999/xlink" xml:space="preserve" xmlns:serif="http://www.serif.com/" style="fill-rule:evenodd;clip-rule:evenodd;stroke-linejoin:round;stroke-miterlimit:2;">
    <g transform="matrix(1,0,0,1,-473.67,-2202.22)">
        <g id="outlines-24" transform="matrix(0.0325642,0,0,0.0325642,455.119,2198.83)">
            <path d="M723.22,456.361C714,454 705.81,451.126 702.831,450C669.361,437.356 629.706,415.049 629.706,372L629.706,216C629.706,172.951 669.361,150.644 702.831,138C747.831,121 834.081,114 899.706,114C965.331,114 1051.58,121 1096.58,138C1130.05,150.644 1169.71,172.951 1169.71,216L1169.71,372C1169.71,415.049 1130.05,437.356 1096.58,450C1093.66,451.102 1084,454.5 1076.3,456.334C1080,457.453 1083.5,458.5 1086.05,459.348C1167.02,485.324 1219.8,526.345 1219.8,566.996C1219.8,607.307 1167.06,648.379 1086.15,674.461C1104.14,757.571 1095.01,823.799 1059.8,844.124C1024.87,864.291 962.883,839.11 899.804,782.013C836.725,839.11 774.734,864.291 739.804,844.124C704.6,823.799 695.469,757.571 713.458,674.461C632.548,648.379 579.804,607.307 579.804,566.996C579.804,526.345 632.594,485.324 713.564,459.348C716.206,458.5 718.285,457.86 723.22,456.361ZM1033.56,603.505C1074.55,708.744 1076.71,799.721 1044.8,818.143C1021.32,831.7 972.967,809.577 920.886,761.766C954.686,727.408 987.967,684.293 1016.72,634.496C1022.68,624.177 1028.29,613.834 1033.56,603.505ZM766.054,603.505C771.322,613.834 776.933,624.177 782.891,634.496C811.641,684.293 844.922,727.408 878.723,761.766C826.641,809.577 778.286,831.7 754.804,818.143C722.896,799.721 725.063,708.744 766.054,603.505ZM963.968,471.948C973.204,485.457 982.172,499.661 990.737,514.496C1000.86,532.03 1009.94,549.611 1017.99,566.994C1009.94,584.379 1000.86,601.961 990.737,619.496C963.117,667.336 931.301,708.612 899.804,741.192C868.308,708.612 836.492,667.336 808.872,619.496C798.748,601.961 789.669,584.379 781.617,566.994C789.67,549.611 798.748,532.03 808.872,514.496C817.434,499.665 826.399,485.465 835.633,471.96C857.739,473.348 879.682,474 899.706,474C919.786,474 941.798,473.345 963.968,471.948ZM998.306,469.42C1109.94,486.542 1189.8,530.152 1189.8,566.996C1189.8,594.096 1146.51,624.893 1079.13,646.091C1066.22,599.662 1045.47,549.302 1016.72,499.496C1010.76,489.179 1004.61,479.147 998.306,469.42ZM801.303,469.42C794.996,479.147 788.847,489.179 782.891,499.496C754.136,549.302 733.387,599.662 720.483,646.091C653.096,624.893 609.804,594.096 609.804,566.996C609.804,530.152 689.672,486.542 801.303,469.42ZM1139.71,229C1139.71,193.126 1104.46,174.537 1074.71,164C1034.71,149.833 958.039,144 899.706,144C841.372,144 764.706,149.833 724.706,164C694.954,174.537 659.706,193.126 659.706,229L659.706,359C659.706,394.874 694.954,413.463 724.706,424C764.706,438.167 841.372,444 899.706,444C958.039,444 1034.71,438.167 1074.71,424C1104.46,413.463 1139.71,394.874 1139.71,359L1139.71,229ZM809.901,268C826.459,268 839.901,285.923 839.901,308C839.901,330.077 826.459,348 809.901,348C793.344,348 779.901,330.077 779.901,308C779.901,285.923 793.344,268 809.901,268ZM989.901,268C1006.46,268 1019.9,285.923 1019.9,308C1019.9,330.077 1006.46,348 989.901,348C973.344,348 959.901,330.077 959.901,308C959.901,285.923 973.344,268 989.901,268Z" style="fill:rgb(47,53,65);"/>
            <path d="M691.301,456.318C656.376,441.712 619.572,416.266 619.572,372L619.572,216C619.572,168.357 662.207,142.514 699.249,128.52C745.074,111.209 832.878,103.866 899.706,103.866C966.533,103.866 1054.34,111.209 1100.16,128.52C1137.2,142.514 1179.84,168.357 1179.84,216C1179.84,216 1179.84,372 1179.84,372C1179.84,416.223 1143.11,441.663 1108.2,456.279C1149.63,471.621 1182.46,491.011 1203.22,511.876C1220.75,529.487 1229.94,548.392 1229.94,566.996C1229.94,585.456 1220.76,604.294 1203.24,621.879C1180.78,644.414 1144.2,665.304 1097.89,681.228C1107.32,729.304 1107.57,771.446 1099.25,802.204C1092.76,826.188 1080.98,843.598 1064.87,852.9C1048.88,862.135 1027.96,863.603 1003.95,857.209C973.186,849.015 936.772,827.743 899.804,795.559C862.836,827.743 826.423,849.015 795.655,857.209C771.649,863.603 750.733,862.135 734.737,852.9C718.626,843.598 706.848,826.188 700.359,802.204C692.037,771.446 692.285,729.304 701.718,681.228C655.411,665.304 618.824,644.414 596.37,621.879C578.848,604.294 569.67,585.456 569.67,566.996C569.67,548.392 578.859,529.487 596.385,511.876C617.132,491.028 649.93,471.652 691.301,456.318ZM723.22,456.361C714,454 705.81,451.126 702.831,450C669.361,437.356 629.706,415.049 629.706,372L629.706,216C629.706,172.951 669.361,150.644 702.831,138C747.831,121 834.081,114 899.706,114C965.331,114 1051.58,121 1096.58,138C1130.05,150.644 1169.71,172.951 1169.71,216L1169.71,372C1169.71,415.049 1130.05,437.356 1096.58,450C1093.66,451.102 1084,454.5 1076.3,456.334C1080,457.453 1083.5,458.5 1086.05,459.348C1167.02,485.324 1219.8,526.345 1219.8,566.996C1219.8,607.307 1167.06,648.379 1086.15,674.461C1104.14,757.571 1095.01,823.799 1059.8,844.124C1024.87,864.291 962.883,839.11 899.804,782.013C836.725,839.11 774.734,864.291 739.804,844.124C704.6,823.799 695.469,757.571 713.458,674.461C632.548,648.379 579.804,607.307 579.804,566.996C579.804,526.345 632.594,485.324 713.564,459.348C716.206,458.5 718.285,457.86 723.22,456.361ZM766.054,603.505C771.322,613.834 776.933,624.177 782.891,634.496C811.641,684.293 844.922,727.408 878.723,761.766C826.641,809.577 778.286,831.7 754.804,818.143C722.896,799.721 725.063,708.744 766.054,603.505ZM1033.56,603.505C1074.55,708.744 1076.71,799.721 1044.8,818.143C1021.32,831.7 972.967,809.577 920.886,761.766C954.686,727.408 987.967,684.293 1016.72,634.496C1022.68,624.177 1028.29,613.834 1033.56,603.505ZM767.736,628.269C749.285,681.484 741.282,729.657 743.291,764.355C743.995,776.515 745.916,786.908 749.192,795.078C751.832,801.661 755.215,806.679 759.871,809.367C767.261,813.634 777.764,812.528 790.351,808.315C811.37,801.279 837.02,784.969 864.133,761.234C832.334,727.655 801.236,686.538 774.115,639.563C771.943,635.801 769.816,632.036 767.736,628.269ZM1031.87,628.269C1029.79,632.036 1027.67,635.801 1025.49,639.563C998.372,686.538 967.274,727.655 935.476,761.234C962.589,784.969 988.239,801.279 1009.26,808.315C1021.84,812.528 1032.35,813.634 1039.74,809.367C1044.39,806.679 1047.78,801.661 1050.42,795.078C1053.69,786.908 1055.61,776.515 1056.32,764.355C1058.33,729.657 1050.32,681.484 1031.87,628.269ZM963.968,471.948C973.204,485.457 982.172,499.661 990.737,514.496C1000.86,532.03 1009.94,549.611 1017.99,566.994C1009.94,584.379 1000.86,601.961 990.737,619.496C963.117,667.336 931.301,708.612 899.804,741.192C868.308,708.612 836.492,667.336 808.872,619.496C798.748,601.961 789.669,584.379 781.617,566.994C789.67,549.611 798.748,532.03 808.872,514.496C817.434,499.665 826.399,485.465 835.633,471.96C857.739,473.348 879.682,474 899.706,474C919.786,474 941.798,473.345 963.968,471.948ZM958.811,482.408C938.393,483.581 918.235,484.134 899.706,484.134C881.235,484.134 861.146,483.585 840.79,482.419C832.827,494.289 825.083,506.684 817.648,519.563C808.506,535.396 800.23,551.268 792.806,566.994C800.23,582.722 808.506,598.595 817.648,614.429C842.688,657.8 871.226,695.692 899.804,726.453C928.383,695.692 956.921,657.8 981.961,614.429C991.103,598.595 999.379,582.722 1006.8,566.994C999.378,551.268 991.102,535.396 981.961,519.563C974.523,506.681 966.777,494.282 958.811,482.408ZM801.303,469.42C794.996,479.147 788.847,489.179 782.891,499.496C754.136,549.302 733.387,599.662 720.483,646.091C653.096,624.893 609.804,594.096 609.804,566.996C609.804,530.152 689.672,486.542 801.303,469.42ZM998.306,469.42C1109.94,486.542 1189.8,530.152 1189.8,566.996C1189.8,594.096 1146.51,624.893 1079.13,646.091C1066.22,599.662 1045.47,549.302 1016.72,499.496C1010.76,489.179 1004.61,479.147 998.306,469.42ZM1018.9,483.258C1021.12,486.942 1023.32,490.667 1025.49,494.429C1052.62,541.409 1072.72,588.879 1085.95,633.191C1120.03,621.579 1146.95,607.528 1163.54,592.851C1173.47,584.062 1179.67,575.523 1179.67,566.996C1179.67,561.62 1177.02,556.181 1172.64,550.603C1167.2,543.681 1159.16,536.822 1148.98,530.132C1119.94,511.043 1074.22,493.888 1018.9,483.258ZM780.705,483.258C725.39,493.888 679.672,511.043 650.628,530.132C640.45,536.822 632.41,543.681 626.973,550.603C622.592,556.181 619.938,561.62 619.938,566.996C619.938,575.523 626.14,584.062 636.072,592.851C652.657,607.528 679.58,621.579 713.66,633.191C726.888,588.879 746.991,541.409 774.115,494.429C776.287,490.667 778.484,486.942 780.705,483.258ZM1139.71,229C1139.71,193.126 1104.46,174.537 1074.71,164C1034.71,149.833 958.039,144 899.706,144C841.372,144 764.706,149.833 724.706,164C694.954,174.537 659.706,193.126 659.706,229L659.706,359C659.706,394.874 694.954,413.463 724.706,424C764.706,438.167 841.372,444 899.706,444C958.039,444 1034.71,438.167 1074.71,424C1104.46,413.463 1139.71,394.874 1139.71,359L1139.71,229ZM1129.57,229L1129.57,359C1129.57,373.667 1122.12,384.675 1111.87,393.218C1100.25,402.91 1085.12,409.561 1071.32,414.448C1032.1,428.339 956.904,433.866 899.706,433.866C842.507,433.866 767.31,428.339 728.089,414.448C714.29,409.561 699.162,402.91 687.539,393.218C677.292,384.675 669.839,373.667 669.839,359L669.839,229C669.839,214.333 677.292,203.325 687.539,194.782C699.162,185.09 714.29,178.439 728.089,173.552C767.31,159.661 842.507,154.134 899.706,154.134C956.904,154.134 1032.1,159.661 1071.32,173.552C1085.12,178.439 1100.25,185.09 1111.87,194.782C1122.12,203.325 1129.57,214.333 1129.57,229ZM989.901,257.866C968.635,257.866 949.767,279.645 949.767,308C949.767,336.355 968.635,358.134 989.901,358.134C1011.17,358.134 1030.04,336.355 1030.04,308C1030.04,279.645 1011.17,257.866 989.901,257.866ZM809.901,257.866C788.635,257.866 769.767,279.645 769.767,308C769.767,336.355 788.635,358.134 809.901,358.134C831.167,358.134 850.035,336.355 850.035,308C850.035,279.645 831.167,257.866 809.901,257.866ZM809.901,268C826.459,268 839.901,285.923 839.901,308C839.901,330.077 826.459,348 809.901,348C793.344,348 779.901,330.077 779.901,308C779.901,285.923 793.344,268 809.901,268ZM989.901,268C1006.46,268 1019.9,285.923 1019.9,308C1019.9,330.077 1006.46,348 989.901,348C973.344,348 959.901,330.077 959.901,308C959.901,285.923 973.344,268 989.901,268Z" style="fill:rgb(47,53,65);"/>
        </g>
    </g>
</svg>
