<svg width="180" height="180" fill="none" xmlns="http://www.w3.org/2000/svg"><g clip-path="url(#a)"><path d="M90 45c0-24.853 20.147-45 45-45s45 20.147 45 45-20.147 45-45 45H90V45Z" fill="#FFE0DB"/><path d="M0 45C0 20.147 20.147 0 45 0s45 20.147 45 45v45H45C20.147 90 0 69.853 0 45Z" fill="#FF5C41"/><path d="M0 135c0-24.853 20.147-45 45-45h45v45c0 24.853-20.147 45-45 45S0 159.853 0 135Z" fill="#FFB5A8"/><path d="M90 90h45c24.853 0 45 20.147 45 45s-20.147 45-45 45-45-20.147-45-45V90Z" fill="#FF8975"/></g><defs><clipPath id="a"><path fill="#fff" d="M0 0h180v180H0z"/></clipPath></defs></svg>