<?xml version="1.0" encoding="UTF-8" standalone="no"?>
<!DOCTYPE svg PUBLIC "-//W3C//DTD SVG 1.1//EN" "http://www.w3.org/Graphics/SVG/1.1/DTD/svg11.dtd">
<svg width="100%" height="100%" viewBox="0 0 170 195" version="1.1" xmlns="http://www.w3.org/2000/svg" xmlns:xlink="http://www.w3.org/1999/xlink" xml:space="preserve" xmlns:serif="http://www.serif.com/" style="fill-rule:evenodd;clip-rule:evenodd;stroke-linejoin:round;stroke-miterlimit:2;">
    <g transform="matrix(1,0,0,1,-663.651,-1427.81)">
        <g id="outlines-192" transform="matrix(0.260514,0,0,0.260514,513.749,1399.25)">
            <path d="M723.22,456.361C714,454 705.81,451.126 702.831,450C669.361,437.356 629.706,415.049 629.706,372L629.706,216C629.706,172.951 669.361,150.644 702.831,138C747.831,121 834.081,114 899.706,114C965.331,114 1051.58,121 1096.58,138C1130.05,150.644 1169.71,172.951 1169.71,216L1169.71,372C1169.71,415.049 1130.05,437.356 1096.58,450C1093.66,451.102 1084,454.5 1076.3,456.334C1080,457.453 1083.5,458.5 1086.05,459.348C1167.02,485.324 1219.8,526.345 1219.8,566.996C1219.8,607.307 1167.06,648.379 1086.15,674.461C1104.14,757.571 1095.01,823.799 1059.8,844.124C1024.87,864.291 962.883,839.11 899.804,782.013C836.725,839.11 774.734,864.291 739.804,844.124C704.6,823.799 695.469,757.571 713.458,674.461C632.548,648.379 579.804,607.307 579.804,566.996C579.804,526.345 632.594,485.324 713.564,459.348C716.206,458.5 718.285,457.86 723.22,456.361ZM1033.56,603.505C1074.55,708.744 1076.71,799.721 1044.8,818.143C1021.32,831.7 972.967,809.577 920.886,761.766C954.686,727.408 987.967,684.293 1016.72,634.496C1022.68,624.177 1028.29,613.834 1033.56,603.505ZM766.054,603.505C771.322,613.834 776.933,624.177 782.891,634.496C811.641,684.293 844.922,727.408 878.723,761.766C826.641,809.577 778.286,831.7 754.804,818.143C722.896,799.721 725.063,708.744 766.054,603.505ZM963.968,471.948C973.204,485.457 982.172,499.661 990.737,514.496C1000.86,532.03 1009.94,549.611 1017.99,566.994C1009.94,584.379 1000.86,601.961 990.737,619.496C963.117,667.336 931.301,708.612 899.804,741.192C868.308,708.612 836.492,667.336 808.872,619.496C798.748,601.961 789.669,584.379 781.617,566.994C789.67,549.611 798.748,532.03 808.872,514.496C817.434,499.665 826.399,485.465 835.633,471.96C857.739,473.348 879.682,474 899.706,474C919.786,474 941.798,473.345 963.968,471.948ZM998.306,469.42C1109.94,486.542 1189.8,530.152 1189.8,566.996C1189.8,594.096 1146.51,624.893 1079.13,646.091C1066.22,599.662 1045.47,549.302 1016.72,499.496C1010.76,489.179 1004.61,479.147 998.306,469.42ZM801.303,469.42C794.996,479.147 788.847,489.179 782.891,499.496C754.136,549.302 733.387,599.662 720.483,646.091C653.096,624.893 609.804,594.096 609.804,566.996C609.804,530.152 689.672,486.542 801.303,469.42ZM1139.71,229C1139.71,193.126 1104.46,174.537 1074.71,164C1034.71,149.833 958.039,144 899.706,144C841.372,144 764.706,149.833 724.706,164C694.954,174.537 659.706,193.126 659.706,229L659.706,359C659.706,394.874 694.954,413.463 724.706,424C764.706,438.167 841.372,444 899.706,444C958.039,444 1034.71,438.167 1074.71,424C1104.46,413.463 1139.71,394.874 1139.71,359L1139.71,229ZM809.901,268C826.459,268 839.901,285.923 839.901,308C839.901,330.077 826.459,348 809.901,348C793.344,348 779.901,330.077 779.901,308C779.901,285.923 793.344,268 809.901,268ZM989.901,268C1006.46,268 1019.9,285.923 1019.9,308C1019.9,330.077 1006.46,348 989.901,348C973.344,348 959.901,330.077 959.901,308C959.901,285.923 973.344,268 989.901,268Z" style="fill:rgb(47,53,65);"/>
            <path d="M708.118,456.501C705.036,455.487 702.631,454.622 701.277,454.111C666.26,440.882 625.311,417.04 625.311,372L625.311,216C625.311,170.96 666.26,147.118 701.277,133.889C746.635,116.754 833.559,109.605 899.706,109.605C965.852,109.605 1052.78,116.754 1098.13,133.889C1133.15,147.118 1174.1,170.96 1174.1,216C1174.1,216 1174.1,372 1174.1,372C1174.1,417.04 1133.15,440.882 1098.13,454.111C1096.88,454.584 1094.42,455.467 1091.4,456.473C1138.89,472.18 1176.44,493.093 1199.15,515.924C1215.43,532.278 1224.2,549.719 1224.2,566.996C1224.2,584.133 1215.44,601.504 1199.17,617.828C1176.43,640.649 1138.83,661.634 1091.27,677.41C1101.46,726.495 1102.14,769.56 1093.71,800.705C1087.68,822.977 1076.96,839.291 1062,847.93C1047.15,856.503 1027.72,857.599 1005.43,851.664C974.273,843.365 937.268,821.261 899.804,787.916C862.341,821.261 825.336,843.365 794.178,851.664C771.892,857.599 752.456,856.503 737.607,847.93C722.645,839.291 711.925,822.977 705.899,800.705C697.473,769.56 698.149,726.495 708.342,677.41C660.776,661.634 623.175,640.649 600.435,617.828C584.169,601.504 575.41,584.133 575.41,566.996C575.41,549.719 584.178,532.278 600.453,515.924C623.159,493.107 660.668,472.206 708.118,456.501ZM723.22,456.361C714,454 705.81,451.126 702.831,450C669.361,437.356 629.706,415.049 629.706,372L629.706,216C629.706,172.951 669.361,150.644 702.831,138C747.831,121 834.081,114 899.706,114C965.331,114 1051.58,121 1096.58,138C1130.05,150.644 1169.71,172.951 1169.71,216L1169.71,372C1169.71,415.049 1130.05,437.356 1096.58,450C1093.66,451.102 1084,454.5 1076.3,456.334C1080,457.453 1083.5,458.5 1086.05,459.348C1167.02,485.324 1219.8,526.345 1219.8,566.996C1219.8,607.307 1167.06,648.379 1086.15,674.461C1104.14,757.571 1095.01,823.799 1059.8,844.124C1024.87,864.291 962.883,839.11 899.804,782.013C836.725,839.11 774.734,864.291 739.804,844.124C704.6,823.799 695.469,757.571 713.458,674.461C632.548,648.379 579.804,607.307 579.804,566.996C579.804,526.345 632.594,485.324 713.564,459.348C716.206,458.5 718.285,457.86 723.22,456.361ZM1033.56,603.505C1074.55,708.744 1076.71,799.721 1044.8,818.143C1021.32,831.7 972.967,809.577 920.886,761.766C954.686,727.408 987.967,684.293 1016.72,634.496C1022.68,624.177 1028.29,613.834 1033.56,603.505ZM766.054,603.505C771.322,613.834 776.933,624.177 782.891,634.496C811.641,684.293 844.922,727.408 878.723,761.766C826.641,809.577 778.286,831.7 754.804,818.143C722.896,799.721 725.063,708.744 766.054,603.505ZM1032.93,614.236C1028.98,621.725 1024.84,629.216 1020.52,636.693C992.479,685.268 960.149,727.526 927.211,761.575C956.679,788.085 984.728,806.156 1007.44,813.757C1021.95,818.617 1034.08,819.258 1042.61,814.337C1048.24,811.085 1052.55,805.178 1055.74,797.214C1059.21,788.561 1061.3,777.565 1062.05,764.687C1064.24,726.812 1054.78,673.103 1032.93,614.236ZM766.675,614.236C744.828,673.103 735.368,726.812 737.561,764.687C738.307,777.565 740.396,788.561 743.865,797.214C747.058,805.178 751.368,811.085 757.002,814.337C765.525,819.258 777.655,818.617 792.173,813.757C814.881,806.156 842.929,788.085 872.398,761.575C839.46,727.526 807.13,685.268 779.085,636.693C774.768,629.216 770.631,621.725 766.675,614.236ZM963.968,471.948C973.204,485.457 982.172,499.661 990.737,514.496C1000.86,532.03 1009.94,549.611 1017.99,566.994C1009.94,584.379 1000.86,601.961 990.737,619.496C963.117,667.336 931.301,708.612 899.804,741.192C868.308,708.612 836.492,667.336 808.872,619.496C798.748,601.961 789.669,584.379 781.617,566.994C789.67,549.611 798.748,532.03 808.872,514.496C817.434,499.665 826.399,485.465 835.633,471.96C857.739,473.348 879.682,474 899.706,474C919.786,474 941.798,473.345 963.968,471.948ZM961.74,476.486C940.324,477.785 919.116,478.395 899.706,478.395C880.352,478.395 859.213,477.788 837.861,476.498C829.181,489.296 820.749,502.713 812.677,516.693C802.981,533.488 794.249,550.327 786.466,566.994C794.248,583.663 802.98,600.502 812.677,617.299C839.178,663.2 869.565,703.018 899.804,734.84C930.043,703.018 960.43,663.2 986.931,617.299C996.629,600.502 1005.36,583.663 1013.14,566.994C1005.36,550.327 996.628,533.488 986.931,516.693C978.857,502.709 970.423,489.288 961.74,476.486ZM801.303,469.42C794.996,479.147 788.847,489.179 782.891,499.496C754.136,549.302 733.387,599.662 720.483,646.091C653.096,624.893 609.804,594.096 609.804,566.996C609.804,530.152 689.672,486.542 801.303,469.42ZM998.306,469.42C1109.94,486.542 1189.8,530.152 1189.8,566.996C1189.8,594.096 1146.51,624.893 1079.13,646.091C1066.22,599.662 1045.47,549.302 1016.72,499.496C1010.76,489.179 1004.61,479.147 998.306,469.42ZM792.324,475.324C730.419,485.838 679.178,504.499 647.476,525.336C636.697,532.421 628.218,539.727 622.459,547.058C617.159,553.806 614.199,560.491 614.199,566.996C614.199,576.832 620.812,587.011 632.268,597.149C650.187,613.006 679.832,628.254 717.49,640.518C730.558,594.988 751.036,545.881 779.085,497.299C783.401,489.822 787.818,482.495 792.324,475.324ZM1007.28,475.324C1011.79,482.495 1016.21,489.822 1020.52,497.299C1048.57,545.881 1069.05,594.988 1082.12,640.518C1119.78,628.254 1149.42,613.006 1167.34,597.149C1178.8,587.011 1185.41,576.832 1185.41,566.996C1185.41,560.491 1182.45,553.806 1177.15,547.058C1171.39,539.727 1162.91,532.421 1152.13,525.336C1120.43,504.499 1069.19,485.838 1007.28,475.324ZM1139.71,229C1139.71,193.126 1104.46,174.537 1074.71,164C1034.71,149.833 958.039,144 899.706,144C841.372,144 764.706,149.833 724.706,164C694.954,174.537 659.706,193.126 659.706,229L659.706,359C659.706,394.874 694.954,413.463 724.706,424C764.706,438.167 841.372,444 899.706,444C958.039,444 1034.71,438.167 1074.71,424C1104.46,413.463 1139.71,394.874 1139.71,359L1139.71,229ZM1135.31,229L1135.31,359C1135.31,375.519 1127.09,388.004 1115.55,397.626C1103.41,407.747 1087.65,414.755 1073.24,419.858C1033.58,433.905 957.547,439.605 899.706,439.605C841.864,439.605 765.835,433.905 726.173,419.858C711.764,414.755 696.001,407.747 683.863,397.626C672.323,388.004 664.1,375.519 664.1,359L664.1,229C664.1,212.481 672.323,199.996 683.863,190.374C696.001,180.253 711.764,173.245 726.173,168.142C765.835,154.095 841.864,148.395 899.706,148.395C957.547,148.395 1033.58,154.095 1073.24,168.142C1087.65,173.245 1103.41,180.253 1115.55,190.374C1127.09,199.996 1135.31,212.481 1135.31,229ZM989.901,263.605C971.304,263.605 955.507,283.204 955.507,308C955.507,332.796 971.304,352.395 989.901,352.395C1008.5,352.395 1024.3,332.796 1024.3,308C1024.3,283.204 1008.5,263.605 989.901,263.605ZM809.901,263.605C791.304,263.605 775.507,283.204 775.507,308C775.507,332.796 791.304,352.395 809.901,352.395C828.498,352.395 844.296,332.796 844.296,308C844.296,283.204 828.498,263.605 809.901,263.605ZM809.901,268C826.459,268 839.901,285.923 839.901,308C839.901,330.077 826.459,348 809.901,348C793.344,348 779.901,330.077 779.901,308C779.901,285.923 793.344,268 809.901,268ZM989.901,268C1006.46,268 1019.9,285.923 1019.9,308C1019.9,330.077 1006.46,348 989.901,348C973.344,348 959.901,330.077 959.901,308C959.901,285.923 973.344,268 989.901,268Z" style="fill:rgb(47,53,65);"/>
        </g>
    </g>
</svg>
