<?xml version="1.0" encoding="UTF-8" standalone="no"?><!DOCTYPE svg PUBLIC "-//W3C//DTD SVG 1.1//EN" "http://www.w3.org/Graphics/SVG/1.1/DTD/svg11.dtd"><svg width="100%" height="100%" viewBox="0 0 640 738" version="1.1" xmlns="http://www.w3.org/2000/svg" xmlns:xlink="http://www.w3.org/1999/xlink" xml:space="preserve" xmlns:serif="http://www.serif.com/" style="fill-rule:evenodd;clip-rule:evenodd;stroke-linejoin:round;stroke-miterlimit:2;"><path id="outlines" d="M143.416,342.361c-9.22,-2.361 -17.41,-5.235 -20.39,-6.361c-33.47,-12.644 -73.125,-34.951 -73.125,-78l0,-156c0,-43.049 39.655,-65.356 73.125,-78c45,-17 131.25,-24 196.875,-24c65.625,0 151.875,7 196.875,24c33.47,12.644 73.125,34.951 73.125,78l0,156c0,43.049 -39.655,65.356 -73.125,78c-2.917,1.102 -12.58,4.5 -20.284,6.334c3.704,1.119 7.204,2.166 9.748,3.014c80.971,25.976 133.76,66.997 133.76,107.648c0,40.311 -52.743,81.383 -133.654,107.465c17.99,83.11 8.858,149.338 -26.346,169.663c-34.93,20.167 -96.921,-5.014 -160,-62.111c-63.079,57.097 -125.07,82.278 -160,62.111c-35.204,-20.325 -44.336,-86.553 -26.346,-169.663c-80.911,-26.082 -133.654,-67.154 -133.654,-107.465c0,-40.651 52.789,-81.672 133.76,-107.648c2.642,-0.848 4.72,-1.488 9.656,-2.987Zm310.334,147.144c40.991,105.239 43.159,196.216 11.25,214.638c-23.482,13.557 -71.837,-8.566 -123.919,-56.377c33.801,-34.358 67.082,-77.473 95.832,-127.27c5.958,-10.319 11.57,-20.662 16.837,-30.991Zm-267.5,0c5.267,10.329 10.879,20.672 16.837,30.991c28.75,49.797 62.031,92.912 95.832,127.27c-52.082,47.811 -100.437,69.934 -123.919,56.377c-31.909,-18.422 -29.741,-109.399 11.25,-214.638Zm197.913,-131.557c9.237,13.509 18.205,27.713 26.77,42.548c10.123,17.534 19.201,35.115 27.255,52.498c-8.053,17.385 -17.131,34.967 -27.255,52.502c-27.621,47.84 -59.436,89.116 -90.933,121.696c-31.497,-32.58 -63.312,-73.856 -90.933,-121.696c-10.124,-17.535 -19.202,-35.117 -27.255,-52.502c8.054,-17.383 17.132,-34.964 27.255,-52.498c8.563,-14.831 17.528,-29.031 26.761,-42.536c22.106,1.388 44.05,2.04 64.073,2.04c20.081,0 42.092,-0.655 64.262,-2.052Zm34.338,-2.528c111.631,17.122 191.499,60.732 191.499,97.576c0,27.1 -43.292,57.897 -110.678,79.095c-12.904,-46.429 -33.653,-96.789 -62.409,-146.595c-5.956,-10.317 -12.105,-20.349 -18.412,-30.076Zm-197.002,0c-6.307,9.727 -12.456,19.759 -18.412,30.076c-28.756,49.806 -49.505,100.166 -62.409,146.595c-67.386,-21.198 -110.678,-51.995 -110.678,-79.095c0,-36.844 79.868,-80.454 191.499,-97.576Zm338.402,-240.42c0,-35.874 -35.249,-54.463 -65,-65c-40,-14.167 -116.666,-20 -175,-20c-58.333,0 -135,5.833 -175,20c-29.751,10.537 -65,29.126 -65,65l0,130c0,35.874 35.249,54.463 65,65c40,14.167 116.667,20 175,20c58.334,0 135,-5.833 175,-20c29.751,-10.537 65,-29.126 65,-65l0,-130Zm-329.804,39c16.557,0 30,17.923 30,40c0,22.077 -13.443,40 -30,40c-16.558,0 -30,-17.923 -30,-40c0,-22.077 13.442,-40 30,-40Zm180,0c16.557,0 30,17.923 30,40c0,22.077 -13.443,40 -30,40c-16.558,0 -30,-17.923 -30,-40c0,-22.077 13.442,-40 30,-40Z" style="fill:#1F2933;"/></svg>
