<svg enable-background="new 0 0 2000 2000" height="2000" viewBox="0 0 2000 2000" width="2000" xmlns="http://www.w3.org/2000/svg"><path d="m352.732 1718.4-144.105-1616.416h1582.746l-144.28 1616.544-647.478 179.488z" fill="#e34e26"/><path d="m1000 234.108v1526.608l523.565-145.131 123.353-1381.477z" fill="#ef662a"/><path d="m503.468 432.378 53.438 599.519h687.142l-23.06 257.144-221.244 59.816-220.825-59.729-14.764-165.111h-199l28.456 318.285 406.086 112.784 406.599-112.784 54.51-608.633h-722.577l-18.143-203.021h758.082.605l17.759-198.27z" fill="#fff"/><g fill="#ebebeb"><path d="m1000 432.378h-496.532l53.438 599.519h443.094v-198.228h-261.771l-18.143-203.021h279.914z"/><path d="m1000 1348.771-.256.086-220.825-59.729-14.764-165.111h-199l28.456 318.285 406.086 112.784.303-.085z"/></g></svg>