<?xml version="1.0" encoding="UTF-8" standalone="no"?><!DOCTYPE svg PUBLIC "-//W3C//DTD SVG 1.1//EN" "http://www.w3.org/Graphics/SVG/1.1/DTD/svg11.dtd"><svg width="100%" height="100%" viewBox="0 0 60 68" version="1.1" xmlns="http://www.w3.org/2000/svg" xmlns:xlink="http://www.w3.org/1999/xlink" xml:space="preserve" xmlns:serif="http://www.serif.com/" style="fill-rule:evenodd;clip-rule:evenodd;stroke-linejoin:round;stroke-miterlimit:2;"><path id="outlines" d="M13.232,31.588c-0.85,-0.218 -1.606,-0.483 -1.881,-0.587c-3.088,-1.167 -6.747,-3.225 -6.747,-7.197l0,-14.393c0,-3.972 3.659,-6.03 6.747,-7.197c4.152,-1.568 12.11,-2.214 18.165,-2.214c6.055,0 14.013,0.646 18.164,2.214c3.089,1.167 6.747,3.225 6.747,7.197l0,14.393c0,3.972 -3.658,6.03 -6.747,7.197c-0.269,0.102 -1.16,0.415 -1.871,0.585c0.342,0.103 0.665,0.199 0.899,0.278c7.471,2.396 12.342,6.181 12.342,9.932c0,3.719 -4.867,7.509 -12.332,9.915c1.66,7.668 0.817,13.779 -2.431,15.654c-3.223,1.861 -8.942,-0.463 -14.762,-5.731c-5.82,5.268 -11.54,7.592 -14.763,5.731c-3.248,-1.875 -4.09,-7.986 -2.43,-15.654c-7.466,-2.406 -12.332,-6.196 -12.332,-9.915c0,-3.751 4.871,-7.536 12.341,-9.932c0.244,-0.079 0.436,-0.138 0.891,-0.276Zm28.633,13.576c3.782,9.71 3.982,18.104 1.038,19.804c-2.166,1.251 -6.628,-0.79 -11.433,-5.202c3.119,-3.17 6.189,-7.148 8.842,-11.742c0.55,-0.952 1.067,-1.907 1.553,-2.86Zm-24.681,0c0.486,0.953 1.004,1.908 1.554,2.86c2.652,4.594 5.723,8.572 8.842,11.742c-4.806,4.412 -9.267,6.453 -11.434,5.202c-2.944,-1.7 -2.744,-10.094 1.038,-19.804Zm18.261,-12.138c0.852,1.247 1.68,2.557 2.47,3.926c0.934,1.618 1.771,3.24 2.514,4.844c-0.743,1.604 -1.58,3.226 -2.514,4.844c-2.549,4.414 -5.484,8.222 -8.39,11.228c-2.906,-3.006 -5.842,-6.814 -8.39,-11.228c-0.934,-1.618 -1.772,-3.24 -2.515,-4.844c0.743,-1.604 1.581,-3.226 2.515,-4.844c0.79,-1.369 1.617,-2.679 2.469,-3.925c2.04,0.128 4.064,0.188 5.912,0.188c1.852,0 3.883,-0.06 5.929,-0.189Zm3.168,-0.233c10.3,1.58 17.669,5.603 17.669,9.003c0,2.5 -3.995,5.342 -10.212,7.297c-1.191,-4.283 -3.105,-8.93 -5.758,-13.525c-0.55,-0.952 -1.117,-1.878 -1.699,-2.775Zm-18.176,0c-0.582,0.897 -1.15,1.823 -1.699,2.775c-2.653,4.595 -4.568,9.242 -5.758,13.525c-6.218,-1.955 -10.212,-4.797 -10.212,-7.297c0,-3.4 7.369,-7.423 17.669,-9.003Zm31.222,-22.183c0,-3.309 -3.252,-5.025 -5.997,-5.997c-3.69,-1.307 -10.764,-1.845 -16.146,-1.845c-5.382,0 -12.456,0.538 -16.147,1.845c-2.745,0.972 -5.997,2.688 -5.997,5.997l0,11.995c0,3.31 3.252,5.025 5.997,5.997c3.691,1.307 10.765,1.846 16.147,1.846c5.382,0 12.456,-0.539 16.146,-1.846c2.745,-0.972 5.997,-2.687 5.997,-5.997l0,-11.995Zm-30.429,3.599c1.528,0 2.768,1.654 2.768,3.69c0,2.037 -1.24,3.691 -2.768,3.691c-1.528,0 -2.768,-1.654 -2.768,-3.691c0,-2.036 1.24,-3.69 2.768,-3.69Zm16.608,0c1.527,0 2.768,1.654 2.768,3.69c0,2.037 -1.241,3.691 -2.768,3.691c-1.528,0 -2.768,-1.654 -2.768,-3.691c0,-2.036 1.24,-3.69 2.768,-3.69Z" style="fill:#fff;"/></svg>