<?xml version="1.0" encoding="UTF-8" standalone="no"?><!DOCTYPE svg PUBLIC "-//W3C//DTD SVG 1.1//EN" "http://www.w3.org/Graphics/SVG/1.1/DTD/svg11.dtd"><svg width="100%" height="100%" viewBox="0 0 76 77" version="1.1" xmlns="http://www.w3.org/2000/svg" xmlns:xlink="http://www.w3.org/1999/xlink" xml:space="preserve" xmlns:serif="http://www.serif.com/" style="fill-rule:evenodd;clip-rule:evenodd;stroke-linejoin:round;stroke-miterlimit:2;"><path id="path14" d="M0,5.462c0,-3.016 2.507,-5.462 5.599,-5.462l64.569,0c3.092,0 5.599,2.446 5.599,5.462l0,65.324c0,3.017 -2.507,5.462 -5.599,5.462l-64.569,0c-3.092,0 -5.599,-2.445 -5.599,-5.462l0,-65.324Z" style="fill:#fff;fill-rule:nonzero;"/><path id="path28" d="M22.967,63.827l0,-34.43l-11.444,0l0,34.43l11.444,0Zm-5.722,-39.131c3.991,0 6.475,-2.643 6.475,-5.948c-0.074,-3.378 -2.484,-5.948 -6.399,-5.948c-3.915,0 -6.474,2.57 -6.474,5.948c0,3.305 2.483,5.948 6.324,5.948l0.074,0Z" style="fill:none;"/><path id="path30" d="M29.3,63.827l11.444,0l0,-19.227c0,-1.029 0.074,-2.057 0.376,-2.792c0.827,-2.056 2.71,-4.186 5.872,-4.186c4.141,0 5.797,3.158 5.797,7.786l0,18.419l11.443,0l0,-19.741c0,-10.576 -5.645,-15.497 -13.175,-15.497c-6.173,0 -8.884,3.451 -10.39,5.802l0.077,0l0,-4.994l-11.444,0c0.15,3.231 0,34.43 0,34.43l0,0Z" style="fill:none;"/></svg>