<?xml version="1.0" encoding="UTF-8" standalone="no"?><!DOCTYPE svg PUBLIC "-//W3C//DTD SVG 1.1//EN" "http://www.w3.org/Graphics/SVG/1.1/DTD/svg11.dtd"><svg width="100%" height="100%" viewBox="0 0 250 204" version="1.1" xmlns="http://www.w3.org/2000/svg" xmlns:xlink="http://www.w3.org/1999/xlink" xml:space="preserve" xmlns:serif="http://www.serif.com/" style="fill-rule:evenodd;clip-rule:evenodd;stroke-linejoin:round;stroke-miterlimit:2;"><path d="M78.623,203.177c94.344,0 145.936,-78.161 145.936,-145.936c0,-2.221 -0.045,-4.432 -0.147,-6.631c10.014,-7.239 18.72,-16.272 25.588,-26.557c-9.191,4.082 -19.081,6.834 -29.456,8.074c10.59,-6.348 18.72,-16.396 22.554,-28.372c-9.912,5.875 -20.885,10.148 -32.568,12.449c-9.359,-9.969 -22.689,-16.204 -37.439,-16.204c-28.328,0 -51.299,22.97 -51.299,51.287c0,4.026 0.451,7.939 1.33,11.695c-42.627,-2.143 -80.427,-22.554 -105.722,-53.589c-4.409,7.578 -6.947,16.386 -6.947,25.779c0,17.796 9.056,33.505 22.825,42.695c-8.413,-0.259 -16.318,-2.571 -23.231,-6.417c-0.011,0.214 -0.011,0.429 -0.011,0.654c0,24.844 17.683,45.582 41.15,50.285c-4.307,1.172 -8.841,1.804 -13.521,1.804c-3.304,0 -6.518,-0.327 -9.642,-0.925c6.53,20.378 25.464,35.207 47.916,35.625c-17.558,13.757 -39.672,21.955 -63.704,21.955c-4.139,0 -8.221,-0.236 -12.235,-0.71c22.7,14.547 49.653,23.039 78.623,23.039Z" style="fill:#f5f7fa;fill-rule:nonzero;"/></svg>