<?xml version="1.0" encoding="UTF-8" standalone="no"?>
<!DOCTYPE svg PUBLIC "-//W3C//DTD SVG 1.1//EN" "http://www.w3.org/Graphics/SVG/1.1/DTD/svg11.dtd">
<svg width="100%" height="100%" viewBox="0 0 800 800" version="1.1" xmlns="http://www.w3.org/2000/svg" xmlns:xlink="http://www.w3.org/1999/xlink" xml:space="preserve" xmlns:serif="http://www.serif.com/" style="fill-rule:evenodd;clip-rule:evenodd;stroke-linejoin:round;stroke-miterlimit:2;">
    <g transform="matrix(1,0,0,1,-500,-100)">
        <g id="v2">
            <g id="background" transform="matrix(2.66667,0,0,2.66667,233.333,-433.333)">
                <path d="M400,275C400,233.606 366.394,200 325,200L175,200C133.606,200 100,233.606 100,275L100,425C100,466.394 133.606,500 175,500L325,500C366.394,500 400,466.394 400,425L400,275Z"/>
            </g>
            <g id="arms">
                <path d="M1100,541.203C1103.23,540.414 1106.58,540 1110,540C1137.6,540 1160,566.885 1160,600C1160,633.115 1137.6,660 1110,660C1106.58,660 1103.23,659.586 1100,658.797L1100,541.203Z" style="fill:white;"/>
                <path d="M700,658.797C696.768,659.586 693.424,660 690,660C662.404,660 640,633.115 640,600C640,566.885 662.404,540 690,540C693.424,540 696.768,540.414 700,541.203L700,658.797Z" style="fill:white;"/>
            </g>
            <g id="legs" transform="matrix(1,0,0,1,-2.5,0)">
                <path d="M1078.82,702.145C1082.8,710.683 1085,720.103 1085,730C1085,768.634 1051.39,800 1010,800C971.903,800 940.402,773.431 935.627,739.079C976.539,737.009 1020.21,731.335 1045.83,720.979C1056.92,716.496 1068.93,710.48 1078.82,702.145Z" style="fill:white;"/>
                <path d="M724.893,705.096C733.986,711.926 744.43,717.043 754.167,720.979C780.828,731.755 827.036,737.461 869.341,739.314C864.455,773.552 833.01,800 795,800C753.606,800 720,768.634 720,730C720,721.23 721.732,712.835 724.893,705.096Z" style="fill:white;"/>
            </g>
            <g id="body">
                <g id="body-backup" serif:id="body backup">
                </g>
                <path id="body1" serif:id="body" d="M1055.85,508.17C1069.34,517.133 1080,529.779 1080,548L1080,652C1080,680.7 1053.56,695.571 1031.25,704C1001.25,715.333 943.75,720 900,720C856.25,720 798.75,715.333 768.75,704C746.437,695.571 720,680.7 720,652L720,548C720,529.779 730.656,517.133 744.147,508.17C792.054,515.786 844.725,520 900,520C955.275,520 1007.95,515.786 1055.85,508.17ZM925.05,547.475L857.4,683.825L875.7,692.525L943.35,556.175L925.05,547.475ZM963.15,664.775L1013.1,624.575L1013.1,607.025L963.9,567.125L952.05,582.425L994.05,614.975L994.05,616.775L951.9,649.625L963.15,664.775ZM836.85,566.975L786.9,607.175L786.9,624.725L836.1,664.625L847.95,649.325L805.95,616.775L805.95,614.975L848.1,582.125L836.85,566.975Z" style="fill:white;"/>
            </g>
            <path id="head" d="M1140,285C1140,249.126 1104.75,230.537 1075,220C1035,205.833 958.333,200 900,200C841.667,200 765,205.833 725,220C695.249,230.537 660,249.126 660,285L660,415C660,450.874 695.249,469.463 725,480C765,494.167 841.667,500 900,500C958.333,500 1035,494.167 1075,480C1104.75,469.463 1140,450.874 1140,415L1140,285ZM990,320C1006.56,320 1020,337.923 1020,360C1020,382.077 1006.56,400 990,400C973.443,400 960,382.077 960,360C960,337.923 973.443,320 990,320ZM810,320C826.557,320 840,337.923 840,360C840,382.077 826.557,400 810,400C793.443,400 780,382.077 780,360C780,337.923 793.443,320 810,320Z" style="fill:white;"/>
        </g>
    </g>
</svg>
