<?xml version="1.0" encoding="UTF-8" standalone="no"?><!DOCTYPE svg PUBLIC "-//W3C//DTD SVG 1.1//EN" "http://www.w3.org/Graphics/SVG/1.1/DTD/svg11.dtd"><svg width="100%" height="100%" viewBox="0 0 1767 2004" version="1.1" xmlns="http://www.w3.org/2000/svg" xmlns:xlink="http://www.w3.org/1999/xlink" xml:space="preserve" xmlns:serif="http://www.serif.com/" style="fill-rule:evenodd;clip-rule:evenodd;stroke-linejoin:round;stroke-miterlimit:2;"><path d="M882.265,2003.61l-721.483,-200.29l-160.782,-1803.32l1766.69,0l-160.95,1803.05l-723.475,200.56Z" style="fill:#415ba9;fill-rule:nonzero;"/><path d="M1467.95,1688.23l137.53,-1540.79l-722.135,0l0,1702.86l584.605,-162.07Z" style="fill:#4666b0;fill-rule:nonzero;"/><path d="M883.345,1390.68l-0.97,0.25l-246.315,-66.51l-15.748,-176.39l-222.022,0l30.983,347.27l453.054,125.77l1.018,-0.28l0,-230.11Zm-554.591,-1022.06l20.104,221.169l534.487,0l0,-221.169l-554.591,0Zm39.833,447.649l19.82,221.17l494.938,0l0,-221.17l-514.758,0Z" style="fill:#ebebec;fill-rule:nonzero;"/><path d="M1396.69,816.271l39.92,-447.649l-554.027,0l0,221.169l311.647,0l-20.12,226.48l-291.527,0l0,221.17l272.347,0l-25.68,286.85l-246.674,66.57l0,230.1l453.414,-125.66l3.32,-37.36l51.99,-582.28l5.39,-59.39Z" style="fill:#fff;fill-rule:nonzero;"/></svg>