<?xml version="1.0" encoding="UTF-8" standalone="no"?><!DOCTYPE svg PUBLIC "-//W3C//DTD SVG 1.1//EN" "http://www.w3.org/Graphics/SVG/1.1/DTD/svg11.dtd"><svg width="100%" height="100%" viewBox="0 0 24 24" version="1.1" xmlns="http://www.w3.org/2000/svg" xmlns:xlink="http://www.w3.org/1999/xlink" xml:space="preserve" xmlns:serif="http://www.serif.com/" style="fill-rule:evenodd;clip-rule:evenodd;stroke-linecap:round;stroke-linejoin:round;"><g><path d="M0.749,23.25l21.75,0" style="fill:none;fill-rule:nonzero;stroke:#ff8ab9;stroke-width:1.5px;"/><path d="M2.749,18.75l2.751,0c0.274,0 0.5,0.226 0.5,0.5l0,4l-3.751,0l0,-4c0,-0.274 0.226,-0.5 0.5,-0.5Z" style="fill:none;fill-rule:nonzero;stroke:#ff8ab9;stroke-width:1.5px;"/><path d="M10.249,9.75l2.751,0c0.274,0 0.5,0.226 0.5,0.5l0,13l-3.751,0l0,-13c0,-0.274 0.226,-0.5 0.5,-0.5Z" style="fill:none;fill-rule:nonzero;stroke:#ff8ab9;stroke-width:1.5px;"/><path d="M17.749,14.25l2.751,0c0.274,0 0.5,0.226 0.5,0.5l0,8.5l-3.75,0l0,-8.5c0,-0.274 0.225,-0.499 0.499,-0.5Z" style="fill:none;fill-rule:nonzero;stroke:#ff8ab9;stroke-width:1.5px;"/><path d="M6.883,5.121l-4.017,4.013" style="fill:none;fill-rule:nonzero;stroke:#ff8ab9;stroke-width:1.5px;"/><path d="M14.311,6.325l-4.674,-1.25" style="fill:none;fill-rule:nonzero;stroke:#ff8ab9;stroke-width:1.5px;"/><path d="M20.392,2.888l-3.581,2.801" style="fill:none;fill-rule:nonzero;stroke:#ff8ab9;stroke-width:1.5px;"/><circle cx="8.249" cy="4.501" r="1.5" style="fill:none;stroke:#ff8ab9;stroke-width:1.5px;"/><circle cx="21.75" cy="2.25" r="1.5" style="fill:none;stroke:#ff8ab9;stroke-width:1.5px;"/><circle cx="15.75" cy="6.75" r="1.5" style="fill:none;stroke:#ff8ab9;stroke-width:1.5px;"/><circle cx="2.249" cy="10.501" r="1.5" style="fill:none;stroke:#ff8ab9;stroke-width:1.5px;"/></g></svg>