<?xml version="1.0" encoding="UTF-8" standalone="no"?><!DOCTYPE svg PUBLIC "-//W3C//DTD SVG 1.1//EN" "http://www.w3.org/Graphics/SVG/1.1/DTD/svg11.dtd"><svg width="100%" height="100%" viewBox="0 0 33 32" version="1.1" xmlns="http://www.w3.org/2000/svg" xmlns:xlink="http://www.w3.org/1999/xlink" xml:space="preserve" xmlns:serif="http://www.serif.com/" style="fill-rule:evenodd;clip-rule:evenodd;stroke-linejoin:round;stroke-miterlimit:2;"><path d="M16.288,0c-8.994,0 -16.288,7.293 -16.288,16.29c0,7.197 4.667,13.302 11.14,15.456c0.815,0.15 1.112,-0.353 1.112,-0.785c0,-0.387 -0.014,-1.411 -0.022,-2.77c-4.531,0.984 -5.487,-2.184 -5.487,-2.184c-0.741,-1.882 -1.809,-2.383 -1.809,-2.383c-1.479,-1.01 0.112,-0.99 0.112,-0.99c1.635,0.115 2.495,1.679 2.495,1.679c1.453,2.489 3.813,1.77 4.741,1.353c0.148,-1.052 0.569,-1.77 1.034,-2.177c-3.617,-0.411 -7.42,-1.809 -7.42,-8.051c0,-1.778 0.635,-3.233 1.677,-4.371c-0.168,-0.412 -0.727,-2.069 0.16,-4.311c0,0 1.367,-0.438 4.479,1.67c1.299,-0.362 2.693,-0.542 4.078,-0.549c1.384,0.007 2.777,0.187 4.078,0.549c3.11,-2.108 4.475,-1.67 4.475,-1.67c0.889,2.242 0.33,3.899 0.163,4.311c1.044,1.138 1.674,2.593 1.674,4.371c0,6.258 -3.809,7.635 -7.437,8.038c0.584,0.503 1.105,1.497 1.105,3.016c0,2.178 -0.02,3.935 -0.02,4.469c0,0.436 0.294,0.943 1.12,0.784c6.468,-2.159 11.131,-8.26 11.131,-15.455c0,-8.997 -7.294,-16.29 -16.291,-16.29Z" style="fill:#fff;"/></svg>